<svg width="1173" height="558" viewBox="0 0 1173 558" fill="none" xmlns="http://www.w3.org/2000/svg">
<g clip-path="url(#clip0_1285_11264)">
<mask id="path-1-inside-1_1285_11264" fill="white">
<path d="M0 0L79.5837 0V79.5837H0L0 0Z"/>
</mask>
<path d="M0 0L79.5837 0V79.5837H0L0 0Z" fill="white"/>
<path d="M0 0L0 -0.667824H-0.667824V0L0 0ZM79.5837 0L80.2525 0V-0.667824H79.5837V0ZM79.5837 79.5837V80.2525H80.2525V79.5837H79.5837ZM0 79.5837H-0.667824V80.2525H0L0 79.5837ZM0 0.667824L79.5837 0.667824V-0.667824L0 -0.667824L0 0.667824ZM78.9149 0V79.5837H80.2525V0L78.9149 0ZM79.5837 78.9149H0L0 80.2525H79.5837V78.9149ZM0.667824 79.5837L0.667824 0L-0.667824 0L-0.667824 79.5837H0.667824Z" fill="#E0E0E0" fill-opacity="0.62" mask="url(#path-1-inside-1_1285_11264)"/>
<mask id="path-3-inside-2_1285_11264" fill="white">
<path d="M0 79.584H79.5837V159.168H0L0 79.584Z"/>
</mask>
<path d="M0 79.584H79.5837V159.168H0L0 79.584Z" fill="white"/>
<path d="M79.5837 159.168V159.836H80.2525V159.168H79.5837ZM0 159.168H-0.668771V159.836H0L0 159.168ZM78.9149 79.584V159.168H80.2525V79.584H78.9149ZM79.5837 158.499H0L0 159.836H79.5837V158.499ZM0.668771 159.168L0.668771 79.584H-0.668771L-0.668771 159.168H0.668771Z" fill="#E0E0E0" fill-opacity="0.62" mask="url(#path-3-inside-2_1285_11264)"/>
<mask id="path-5-inside-3_1285_11264" fill="white">
<path d="M0 159.168H79.5837V238.752H0L0 159.168Z"/>
</mask>
<path d="M0 159.168H79.5837V238.752H0L0 159.168Z" fill="white"/>
<path d="M79.5837 238.752V239.42H80.2525V238.752H79.5837ZM0 238.752H-0.668771V239.42H0L0 238.752ZM78.9149 159.168V238.752H80.2525V159.168H78.9149ZM79.5837 238.083H0L0 239.42H79.5837V238.083ZM0.668771 238.752L0.668771 159.168H-0.668771L-0.668771 238.752H0.668771Z" fill="#E0E0E0" fill-opacity="0.62" mask="url(#path-5-inside-3_1285_11264)"/>
<mask id="path-7-inside-4_1285_11264" fill="white">
<path d="M0 238.751H79.5837V318.335H0L0 238.751Z"/>
</mask>
<path d="M0 238.751H79.5837V318.335H0L0 238.751Z" fill="white"/>
<path d="M79.5837 318.335V319.003H80.2525V318.335H79.5837ZM0 318.335H-0.668771V319.003H0L0 318.335ZM78.9149 238.751V318.335H80.2525V238.751H78.9149ZM79.5837 317.666H0L0 319.003H79.5837V317.666ZM0.668771 318.335L0.668771 238.751H-0.668771L-0.668771 318.335H0.668771Z" fill="#E0E0E0" fill-opacity="0.62" mask="url(#path-7-inside-4_1285_11264)"/>
<mask id="path-9-inside-5_1285_11264" fill="white">
<path d="M0 318.335H79.5837V397.919H0L0 318.335Z"/>
</mask>
<path d="M0 318.335H79.5837V397.919H0L0 318.335Z" fill="white"/>
<path d="M79.5837 397.919V398.587H80.2525V397.919H79.5837ZM0 397.919H-0.668771V398.587H0L0 397.919ZM78.9149 318.335V397.919H80.2525V318.335H78.9149ZM79.5837 397.25H0L0 398.587H79.5837V397.25ZM0.668771 397.919L0.668771 318.335H-0.668771L-0.668771 397.919H0.668771Z" fill="#E0E0E0" fill-opacity="0.62" mask="url(#path-9-inside-5_1285_11264)"/>
<mask id="path-11-inside-6_1285_11264" fill="white">
<path d="M0 397.919H79.5837V477.503H0L0 397.919Z"/>
</mask>
<path d="M0 397.919H79.5837V477.503H0L0 397.919Z" fill="white"/>
<path d="M79.5837 477.503V478.171H80.2525V477.503H79.5837ZM0 477.503H-0.668771V478.171H0L0 477.503ZM78.9149 397.919V477.503H80.2525V397.919H78.9149ZM79.5837 476.834H0L0 478.171H79.5837V476.834ZM0.668771 477.503L0.668771 397.919H-0.668771L-0.668771 477.503H0.668771Z" fill="#E0E0E0" fill-opacity="0.62" mask="url(#path-11-inside-6_1285_11264)"/>
<mask id="path-13-inside-7_1285_11264" fill="white">
<path d="M0 477.502H79.5837V557.086H0L0 477.502Z"/>
</mask>
<path d="M0 477.502H79.5837V557.086H0L0 477.502Z" fill="white"/>
<path d="M79.5837 557.086V557.754H80.2525V557.086H79.5837ZM0 557.086H-0.668771V557.754H0L0 557.086ZM78.9149 477.502V557.086H80.2525V477.502H78.9149ZM79.5837 556.417H0L0 557.754H79.5837V556.417ZM0.668771 557.086L0.668771 477.502H-0.668771L-0.668771 557.086H0.668771Z" fill="#E0E0E0" fill-opacity="0.62" mask="url(#path-13-inside-7_1285_11264)"/>
<mask id="path-15-inside-8_1285_11264" fill="white">
<path d="M79.582 0L159.166 0V79.5837H79.582V0Z"/>
</mask>
<path d="M79.582 0L159.166 0V79.5837H79.582V0Z" fill="white"/>
<path d="M159.166 0L159.835 0V-0.668771H159.166V0ZM159.166 79.5837V80.2525H159.835V79.5837H159.166ZM79.582 0.668771L159.166 0.668771V-0.668771L79.582 -0.668771V0.668771ZM158.497 0V79.5837H159.835V0L158.497 0ZM159.166 78.9149H79.582V80.2525H159.166V78.9149Z" fill="#E0E0E0" fill-opacity="0.62" mask="url(#path-15-inside-8_1285_11264)"/>
<mask id="path-17-inside-9_1285_11264" fill="white">
<path d="M79.582 79.584H159.166V159.168H79.582V79.584Z"/>
</mask>
<path d="M79.582 79.584H159.166V159.168H79.582V79.584Z" fill="#FFF1F8"/>
<path d="M159.166 159.168V159.836H159.835V159.168H159.166ZM158.497 79.584V159.168H159.835V79.584H158.497ZM159.166 158.499H79.582V159.836H159.166V158.499Z" fill="#E0E0E0" fill-opacity="0.62" mask="url(#path-17-inside-9_1285_11264)"/>
<mask id="path-19-inside-10_1285_11264" fill="white">
<path d="M79.582 159.168H159.166V238.752H79.582V159.168Z"/>
</mask>
<path d="M79.582 159.168H159.166V238.752H79.582V159.168Z" fill="white"/>
<path d="M159.166 238.752V239.42H159.835V238.752H159.166ZM158.497 159.168V238.752H159.835V159.168H158.497ZM159.166 238.083H79.582V239.42H159.166V238.083Z" fill="#E0E0E0" fill-opacity="0.62" mask="url(#path-19-inside-10_1285_11264)"/>
<mask id="path-21-inside-11_1285_11264" fill="white">
<path d="M79.582 238.751H159.166V318.335H79.582V238.751Z"/>
</mask>
<path d="M79.582 238.751H159.166V318.335H79.582V238.751Z" fill="white"/>
<path d="M159.166 318.335V319.003H159.835V318.335H159.166ZM158.497 238.751V318.335H159.835V238.751H158.497ZM159.166 317.666H79.582V319.003H159.166V317.666Z" fill="#E0E0E0" fill-opacity="0.62" mask="url(#path-21-inside-11_1285_11264)"/>
<mask id="path-23-inside-12_1285_11264" fill="white">
<path d="M79.582 318.335H159.166V397.919H79.582V318.335Z"/>
</mask>
<path d="M79.582 318.335H159.166V397.919H79.582V318.335Z" fill="white"/>
<path d="M159.166 397.919V398.587H159.835V397.919H159.166ZM158.497 318.335V397.919H159.835V318.335H158.497ZM159.166 397.25H79.582V398.587H159.166V397.25Z" fill="#E0E0E0" fill-opacity="0.62" mask="url(#path-23-inside-12_1285_11264)"/>
<mask id="path-25-inside-13_1285_11264" fill="white">
<path d="M79.582 397.919H159.166V477.503H79.582V397.919Z"/>
</mask>
<path d="M79.582 397.919H159.166V477.503H79.582V397.919Z" fill="white"/>
<path d="M159.166 477.503V478.171H159.835V477.503H159.166ZM158.497 397.919V477.503H159.835V397.919H158.497ZM159.166 476.834H79.582V478.171H159.166V476.834Z" fill="#E0E0E0" fill-opacity="0.62" mask="url(#path-25-inside-13_1285_11264)"/>
<mask id="path-27-inside-14_1285_11264" fill="white">
<path d="M79.582 477.502H159.166V557.086H79.582V477.502Z"/>
</mask>
<path d="M79.582 477.502H159.166V557.086H79.582V477.502Z" fill="white"/>
<path d="M159.166 557.086V557.754H159.835V557.086H159.166ZM158.497 477.502V557.086H159.835V477.502H158.497ZM159.166 556.417H79.582V557.754H159.166V556.417Z" fill="#E0E0E0" fill-opacity="0.62" mask="url(#path-27-inside-14_1285_11264)"/>
<mask id="path-29-inside-15_1285_11264" fill="white">
<path d="M159.168 79.584H238.752V159.168H159.168V79.584Z"/>
</mask>
<path d="M159.168 79.584H238.752V159.168H159.168V79.584Z" fill="white"/>
<path d="M238.752 159.168V159.836H239.42V159.168H238.752ZM238.083 79.584V159.168H239.42V79.584H238.083ZM238.752 158.499H159.168V159.836H238.752V158.499Z" fill="#E0E0E0" fill-opacity="0.62" mask="url(#path-29-inside-15_1285_11264)"/>
<mask id="path-31-inside-16_1285_11264" fill="white">
<path d="M159.168 159.168H238.752V238.752H159.168V159.168Z"/>
</mask>
<path d="M159.168 159.168H238.752V238.752H159.168V159.168Z" fill="white"/>
<path d="M238.752 238.752V239.42H239.42V238.752H238.752ZM238.083 159.168V238.752H239.42V159.168H238.083ZM238.752 238.083H159.168V239.42H238.752V238.083Z" fill="#E0E0E0" fill-opacity="0.62" mask="url(#path-31-inside-16_1285_11264)"/>
<mask id="path-33-inside-17_1285_11264" fill="white">
<path d="M158.941 238.287H238.525V317.871H158.941V238.287Z"/>
</mask>
<path d="M158.941 238.287H238.525V317.871H158.941V238.287Z" fill="#FFF1F8"/>
<path d="M238.525 317.871V318.54H239.194V317.871H238.525ZM237.856 238.287V317.871H239.194V238.287H237.856ZM238.525 317.202H158.941V318.54H238.525V317.202Z" fill="#E0E0E0" fill-opacity="0.62" mask="url(#path-33-inside-17_1285_11264)"/>
<mask id="path-35-inside-18_1285_11264" fill="white">
<path d="M159.168 318.335H238.752V397.919H159.168V318.335Z"/>
</mask>
<path d="M159.168 318.335H238.752V397.919H159.168V318.335Z" fill="white"/>
<path d="M238.752 397.919V398.587H239.42V397.919H238.752ZM238.083 318.335V397.919H239.42V318.335H238.083ZM238.752 397.25H159.168V398.587H238.752V397.25Z" fill="#E0E0E0" fill-opacity="0.62" mask="url(#path-35-inside-18_1285_11264)"/>
<mask id="path-37-inside-19_1285_11264" fill="white">
<path d="M159.168 397.919H238.752V477.503H159.168V397.919Z"/>
</mask>
<path d="M159.168 397.919H238.752V477.503H159.168V397.919Z" fill="white"/>
<path d="M238.752 477.503V478.171H239.42V477.503H238.752ZM238.083 397.919V477.503H239.42V397.919H238.083ZM238.752 476.834H159.168V478.171H238.752V476.834Z" fill="#E0E0E0" fill-opacity="0.62" mask="url(#path-37-inside-19_1285_11264)"/>
<mask id="path-39-inside-20_1285_11264" fill="white">
<path d="M159.168 477.502H238.752V557.086H159.168V477.502Z"/>
</mask>
<path d="M159.168 477.502H238.752V557.086H159.168V477.502Z" fill="white"/>
<path d="M238.752 557.086V557.754H239.42V557.086H238.752ZM238.083 477.502V557.086H239.42V477.502H238.083ZM238.752 556.417H159.168V557.754H238.752V556.417Z" fill="#E0E0E0" fill-opacity="0.62" mask="url(#path-39-inside-20_1285_11264)"/>
<mask id="path-41-inside-21_1285_11264" fill="white">
<path d="M238.75 79.584H318.334V159.168H238.75V79.584Z"/>
</mask>
<path d="M238.75 79.584H318.334V159.168H238.75V79.584Z" fill="white"/>
<path d="M318.334 159.168V159.836H319.002V159.168H318.334ZM317.665 79.584V159.168H319.002V79.584H317.665ZM318.334 158.499H238.75V159.836H318.334V158.499Z" fill="#E0E0E0" fill-opacity="0.62" mask="url(#path-41-inside-21_1285_11264)"/>
<mask id="path-43-inside-22_1285_11264" fill="white">
<path d="M238.75 159.168H318.334V238.752H238.75V159.168Z"/>
</mask>
<path d="M238.75 159.168H318.334V238.752H238.75V159.168Z" fill="white"/>
<path d="M318.334 238.752V239.42H319.002V238.752H318.334ZM317.665 159.168V238.752H319.002V159.168H317.665ZM318.334 238.083H238.75V239.42H318.334V238.083Z" fill="#E0E0E0" fill-opacity="0.62" mask="url(#path-43-inside-22_1285_11264)"/>
<mask id="path-45-inside-23_1285_11264" fill="white">
<path d="M238.75 238.751H318.334V318.335H238.75V238.751Z"/>
</mask>
<path d="M238.75 238.751H318.334V318.335H238.75V238.751Z" fill="white"/>
<path d="M318.334 318.335V319.003H319.002V318.335H318.334ZM317.665 238.751V318.335H319.002V238.751H317.665ZM318.334 317.666H238.75V319.003H318.334V317.666Z" fill="#E0E0E0" fill-opacity="0.62" mask="url(#path-45-inside-23_1285_11264)"/>
<mask id="path-47-inside-24_1285_11264" fill="white">
<path d="M238.75 318.335H318.334V397.919H238.75V318.335Z"/>
</mask>
<path d="M238.75 318.335H318.334V397.919H238.75V318.335Z" fill="white"/>
<path d="M318.334 397.919V398.587H319.002V397.919H318.334ZM317.665 318.335V397.919H319.002V318.335H317.665ZM318.334 397.25H238.75V398.587H318.334V397.25Z" fill="#E0E0E0" fill-opacity="0.62" mask="url(#path-47-inside-24_1285_11264)"/>
<mask id="path-49-inside-25_1285_11264" fill="white">
<path d="M238.75 397.919H318.334V477.503H238.75V397.919Z"/>
</mask>
<path d="M238.75 397.919H318.334V477.503H238.75V397.919Z" fill="#FFF1F8"/>
<path d="M318.334 477.503V478.171H319.002V477.503H318.334ZM317.665 397.919V477.503H319.002V397.919H317.665ZM318.334 476.834H238.75V478.171H318.334V476.834Z" fill="#E0E0E0" fill-opacity="0.62" mask="url(#path-49-inside-25_1285_11264)"/>
<mask id="path-51-inside-26_1285_11264" fill="white">
<path d="M238.75 477.502H318.334V557.086H238.75V477.502Z"/>
</mask>
<path d="M238.75 477.502H318.334V557.086H238.75V477.502Z" fill="white"/>
<path d="M318.334 557.086V557.754H319.002V557.086H318.334ZM317.665 477.502V557.086H319.002V477.502H317.665ZM318.334 556.417H238.75V557.754H318.334V556.417Z" fill="#E0E0E0" fill-opacity="0.62" mask="url(#path-51-inside-26_1285_11264)"/>
<mask id="path-53-inside-27_1285_11264" fill="white">
<path d="M318.336 79.584H397.92V159.168H318.336V79.584Z"/>
</mask>
<path d="M318.336 79.584H397.92V159.168H318.336V79.584Z" fill="white"/>
<path d="M397.92 159.168V159.836H398.588V159.168H397.92ZM397.251 79.584V159.168H398.588V79.584H397.251ZM397.92 158.499H318.336V159.836H397.92V158.499Z" fill="#E0E0E0" fill-opacity="0.62" mask="url(#path-53-inside-27_1285_11264)"/>
<mask id="path-55-inside-28_1285_11264" fill="white">
<path d="M318.336 159.168H397.92V238.752H318.336V159.168Z"/>
</mask>
<path d="M318.336 159.168H397.92V238.752H318.336V159.168Z" fill="white"/>
<path d="M397.92 238.752V239.42H398.588V238.752H397.92ZM397.251 159.168V238.752H398.588V159.168H397.251ZM397.92 238.083H318.336V239.42H397.92V238.083Z" fill="#E0E0E0" fill-opacity="0.62" mask="url(#path-55-inside-28_1285_11264)"/>
<mask id="path-57-inside-29_1285_11264" fill="white">
<path d="M318.336 238.751H397.92V318.335H318.336V238.751Z"/>
</mask>
<path d="M318.336 238.751H397.92V318.335H318.336V238.751Z" fill="white"/>
<path d="M397.92 318.335V319.003H398.588V318.335H397.92ZM397.251 238.751V318.335H398.588V238.751H397.251ZM397.92 317.666H318.336V319.003H397.92V317.666Z" fill="#E0E0E0" fill-opacity="0.62" mask="url(#path-57-inside-29_1285_11264)"/>
<mask id="path-59-inside-30_1285_11264" fill="white">
<path d="M318.336 318.335H397.92V397.919H318.336V318.335Z"/>
</mask>
<path d="M318.336 318.335H397.92V397.919H318.336V318.335Z" fill="white"/>
<path d="M397.92 397.919V398.587H398.588V397.919H397.92ZM397.251 318.335V397.919H398.588V318.335H397.251ZM397.92 397.25H318.336V398.587H397.92V397.25Z" fill="#E0E0E0" fill-opacity="0.62" mask="url(#path-59-inside-30_1285_11264)"/>
<mask id="path-61-inside-31_1285_11264" fill="white">
<path d="M318.336 397.919H397.92V477.503H318.336V397.919Z"/>
</mask>
<path d="M318.336 397.919H397.92V477.503H318.336V397.919Z" fill="white"/>
<path d="M397.92 477.503V478.171H398.588V477.503H397.92ZM397.251 397.919V477.503H398.588V397.919H397.251ZM397.92 476.834H318.336V478.171H397.92V476.834Z" fill="#E0E0E0" fill-opacity="0.62" mask="url(#path-61-inside-31_1285_11264)"/>
<mask id="path-63-inside-32_1285_11264" fill="white">
<path d="M318.336 477.502H397.92V557.086H318.336V477.502Z"/>
</mask>
<path d="M318.336 477.502H397.92V557.086H318.336V477.502Z" fill="white"/>
<path d="M397.92 557.086V557.754H398.588V557.086H397.92ZM397.251 477.502V557.086H398.588V477.502H397.251ZM397.92 556.417H318.336V557.754H397.92V556.417Z" fill="#E0E0E0" fill-opacity="0.62" mask="url(#path-63-inside-32_1285_11264)"/>
<mask id="path-65-inside-33_1285_11264" fill="white">
<path d="M397.918 79.584H477.502V159.168H397.918V79.584Z"/>
</mask>
<path d="M397.918 79.584H477.502V159.168H397.918V79.584Z" fill="white"/>
<path d="M477.502 159.168V159.836H478.17V159.168H477.502ZM476.833 79.584V159.168H478.17V79.584H476.833ZM477.502 158.499H397.918V159.836H477.502V158.499Z" fill="#E0E0E0" fill-opacity="0.62" mask="url(#path-65-inside-33_1285_11264)"/>
<mask id="path-67-inside-34_1285_11264" fill="white">
<path d="M397.918 159.168H477.502V238.752H397.918V159.168Z"/>
</mask>
<path d="M397.918 159.168H477.502V238.752H397.918V159.168Z" fill="white"/>
<path d="M477.502 238.752V239.42H478.17V238.752H477.502ZM476.833 159.168V238.752H478.17V159.168H476.833ZM477.502 238.083H397.918V239.42H477.502V238.083Z" fill="#E0E0E0" fill-opacity="0.62" mask="url(#path-67-inside-34_1285_11264)"/>
<mask id="path-69-inside-35_1285_11264" fill="white">
<path d="M397.918 238.751H477.502V318.335H397.918V238.751Z"/>
</mask>
<path d="M397.918 238.751H477.502V318.335H397.918V238.751Z" fill="white"/>
<path d="M477.502 318.335V319.003H478.17V318.335H477.502ZM476.833 238.751V318.335H478.17V238.751H476.833ZM477.502 317.666H397.918V319.003H477.502V317.666Z" fill="#E0E0E0" fill-opacity="0.62" mask="url(#path-69-inside-35_1285_11264)"/>
<mask id="path-71-inside-36_1285_11264" fill="white">
<path d="M397.918 318.335H477.502V397.919H397.918V318.335Z"/>
</mask>
<path d="M397.918 318.335H477.502V397.919H397.918V318.335Z" fill="white"/>
<path d="M477.502 397.919V398.587H478.17V397.919H477.502ZM476.833 318.335V397.919H478.17V318.335H476.833ZM477.502 397.25H397.918V398.587H477.502V397.25Z" fill="#E0E0E0" fill-opacity="0.62" mask="url(#path-71-inside-36_1285_11264)"/>
<mask id="path-73-inside-37_1285_11264" fill="white">
<path d="M397.918 397.919H477.502V477.503H397.918V397.919Z"/>
</mask>
<path d="M397.918 397.919H477.502V477.503H397.918V397.919Z" fill="white"/>
<path d="M477.502 477.503V478.171H478.17V477.503H477.502ZM476.833 397.919V477.503H478.17V397.919H476.833ZM477.502 476.834H397.918V478.171H477.502V476.834Z" fill="#E0E0E0" fill-opacity="0.62" mask="url(#path-73-inside-37_1285_11264)"/>
<mask id="path-75-inside-38_1285_11264" fill="white">
<path d="M397.918 477.502H477.502V557.086H397.918V477.502Z"/>
</mask>
<path d="M397.918 477.502H477.502V557.086H397.918V477.502Z" fill="white"/>
<path d="M477.502 557.086V557.754H478.17V557.086H477.502ZM476.833 477.502V557.086H478.17V477.502H476.833ZM477.502 556.417H397.918V557.754H477.502V556.417Z" fill="#E0E0E0" fill-opacity="0.62" mask="url(#path-75-inside-38_1285_11264)"/>
<mask id="path-77-inside-39_1285_11264" fill="white">
<path d="M477.5 79.584H557.084V159.168H477.5V79.584Z"/>
</mask>
<path d="M477.5 79.584H557.084V159.168H477.5V79.584Z" fill="white"/>
<path d="M557.084 159.168V159.836H557.752V159.168H557.084ZM556.415 79.584V159.168H557.752V79.584H556.415ZM557.084 158.499H477.5V159.836H557.084V158.499Z" fill="#E0E0E0" fill-opacity="0.62" mask="url(#path-77-inside-39_1285_11264)"/>
<mask id="path-79-inside-40_1285_11264" fill="white">
<path d="M477.5 159.168H557.084V238.752H477.5V159.168Z"/>
</mask>
<path d="M477.5 159.168H557.084V238.752H477.5V159.168Z" fill="#FFF1F8"/>
<path d="M557.084 238.752V239.42H557.752V238.752H557.084ZM556.415 159.168V238.752H557.752V159.168H556.415ZM557.084 238.083H477.5V239.42H557.084V238.083Z" fill="#E0E0E0" fill-opacity="0.62" mask="url(#path-79-inside-40_1285_11264)"/>
<mask id="path-81-inside-41_1285_11264" fill="white">
<path d="M477.5 238.751H557.084V318.335H477.5V238.751Z"/>
</mask>
<path d="M477.5 238.751H557.084V318.335H477.5V238.751Z" fill="white"/>
<path d="M557.084 318.335V319.003H557.752V318.335H557.084ZM556.415 238.751V318.335H557.752V238.751H556.415ZM557.084 317.666H477.5V319.003H557.084V317.666Z" fill="#E0E0E0" fill-opacity="0.62" mask="url(#path-81-inside-41_1285_11264)"/>
<mask id="path-83-inside-42_1285_11264" fill="white">
<path d="M477.504 318.335H557.088V397.919H477.504V318.335Z"/>
</mask>
<path d="M477.504 318.335H557.088V397.919H477.504V318.335Z" fill="white"/>
<path d="M557.088 397.919V398.587H557.756V397.919H557.088ZM556.419 318.335V397.919H557.756V318.335H556.419ZM557.088 397.25H477.504V398.587H557.088V397.25Z" fill="#E0E0E0" fill-opacity="0.62" mask="url(#path-83-inside-42_1285_11264)"/>
<mask id="path-85-inside-43_1285_11264" fill="white">
<path d="M477.504 397.919H557.088V477.503H477.504V397.919Z"/>
</mask>
<path d="M477.504 397.919H557.088V477.503H477.504V397.919Z" fill="white"/>
<path d="M557.088 477.503V478.171H557.756V477.503H557.088ZM556.419 397.919V477.503H557.756V397.919H556.419ZM557.088 476.834H477.504V478.171H557.088V476.834Z" fill="#E0E0E0" fill-opacity="0.62" mask="url(#path-85-inside-43_1285_11264)"/>
<mask id="path-87-inside-44_1285_11264" fill="white">
<path d="M477.504 477.502H557.088V557.086H477.504V477.502Z"/>
</mask>
<path d="M477.504 477.502H557.088V557.086H477.504V477.502Z" fill="white"/>
<path d="M557.088 557.086V557.754H557.756V557.086H557.088ZM556.419 477.502V557.086H557.756V477.502H556.419ZM557.088 556.417H477.504V557.754H557.088V556.417Z" fill="#E0E0E0" fill-opacity="0.62" mask="url(#path-87-inside-44_1285_11264)"/>
<mask id="path-89-inside-45_1285_11264" fill="white">
<path d="M159.168 0L238.752 0V79.5837H159.168V0Z"/>
</mask>
<path d="M159.168 0L238.752 0V79.5837H159.168V0Z" fill="white"/>
<path d="M238.752 0L239.42 0V-0.668771H238.752V0ZM238.752 79.5837V80.2525H239.42V79.5837H238.752ZM159.168 0.668771L238.752 0.668771V-0.668771L159.168 -0.668771V0.668771ZM238.083 0V79.5837H239.42V0L238.083 0ZM238.752 78.9149H159.168V80.2525H238.752V78.9149Z" fill="#E0E0E0" fill-opacity="0.62" mask="url(#path-89-inside-45_1285_11264)"/>
<mask id="path-91-inside-46_1285_11264" fill="white">
<path d="M238.75 0L318.334 0V79.5837H238.75V0Z"/>
</mask>
<path d="M238.75 0L318.334 0V79.5837H238.75V0Z" fill="white"/>
<path d="M318.334 0L319.002 0V-0.668771H318.334V0ZM318.334 79.5837V80.2525H319.002V79.5837H318.334ZM238.75 0.668771L318.334 0.668771V-0.668771L238.75 -0.668771V0.668771ZM317.665 0V79.5837H319.002V0L317.665 0ZM318.334 78.9149H238.75V80.2525H318.334V78.9149Z" fill="#E0E0E0" fill-opacity="0.62" mask="url(#path-91-inside-46_1285_11264)"/>
<mask id="path-93-inside-47_1285_11264" fill="white">
<path d="M318.336 0L397.92 0V79.5837H318.336V0Z"/>
</mask>
<path d="M318.336 0L397.92 0V79.5837H318.336V0Z" fill="white"/>
<path d="M397.92 0L398.588 0V-0.668771H397.92V0ZM397.92 79.5837V80.2525H398.588V79.5837H397.92ZM318.336 0.668771L397.92 0.668771V-0.668771L318.336 -0.668771V0.668771ZM397.251 0V79.5837H398.588V0L397.251 0ZM397.92 78.9149H318.336V80.2525H397.92V78.9149Z" fill="#E0E0E0" fill-opacity="0.62" mask="url(#path-93-inside-47_1285_11264)"/>
<mask id="path-95-inside-48_1285_11264" fill="white">
<path d="M397.918 0L477.502 0V79.5837H397.918V0Z"/>
</mask>
<path d="M397.918 0L477.502 0V79.5837H397.918V0Z" fill="#FFF1F8"/>
<path d="M477.502 0L478.17 0V-0.668771H477.502V0ZM477.502 79.5837V80.2525H478.17V79.5837H477.502ZM397.918 0.668771L477.502 0.668771V-0.668771L397.918 -0.668771V0.668771ZM476.833 0V79.5837H478.17V0L476.833 0ZM477.502 78.9149H397.918V80.2525H477.502V78.9149Z" fill="#E0E0E0" fill-opacity="0.62" mask="url(#path-95-inside-48_1285_11264)"/>
<mask id="path-97-inside-49_1285_11264" fill="white">
<path d="M477.504 0L557.088 0V79.5837H477.504V0Z"/>
</mask>
<path d="M477.504 0L557.088 0V79.5837H477.504V0Z" fill="white"/>
<path d="M557.088 0L557.756 0V-0.668771H557.088V0ZM557.088 79.5837V80.2525H557.756V79.5837H557.088ZM477.504 0.668771L557.088 0.668771V-0.668771L477.504 -0.668771V0.668771ZM556.419 0V79.5837H557.756V0L556.419 0ZM557.088 78.9149H477.504V80.2525H557.088V78.9149Z" fill="#E0E0E0" fill-opacity="0.62" mask="url(#path-97-inside-49_1285_11264)"/>
<mask id="path-99-inside-50_1285_11264" fill="white">
<path d="M556.957 0L637.025 0V79.5837H556.957V0Z"/>
</mask>
<path d="M556.957 0L637.025 0V79.5837H556.957V0Z" fill="white"/>
<path d="M637.025 0L637.693 0V-0.668771H637.025V0ZM637.025 79.5837V80.2525H637.693V79.5837H637.025ZM556.957 0.668771L637.025 0.668771V-0.668771L556.957 -0.668771V0.668771ZM636.356 0V79.5837H637.693V0L636.356 0ZM637.025 78.9149H556.957V80.2525H637.025V78.9149Z" fill="#E0E0E0" fill-opacity="0.62" mask="url(#path-99-inside-50_1285_11264)"/>
<mask id="path-101-inside-51_1285_11264" fill="white">
<path d="M637.023 0L717.091 0V79.5837H637.023V0Z"/>
</mask>
<path d="M637.023 0L717.091 0V79.5837H637.023V0Z" fill="white"/>
<path d="M717.091 0L717.76 0V-0.668771H717.091V0ZM717.091 79.5837V80.2525H717.76V79.5837H717.091ZM637.023 0.668771L717.091 0.668771V-0.668771L637.023 -0.668771V0.668771ZM716.422 0V79.5837H717.76V0L716.422 0ZM717.091 78.9149H637.023V80.2525H717.091V78.9149Z" fill="#E0E0E0" fill-opacity="0.62" mask="url(#path-101-inside-51_1285_11264)"/>
<mask id="path-103-inside-52_1285_11264" fill="white">
<path d="M717.094 0L797.161 0V79.5837H717.094V0Z"/>
</mask>
<path d="M717.094 0L797.161 0V79.5837H717.094V0Z" fill="white"/>
<path d="M797.161 0L797.83 0V-0.668771H797.161V0ZM797.161 79.5837V80.2525H797.83V79.5837H797.161ZM717.094 0.668771L797.161 0.668771V-0.668771L717.094 -0.668771V0.668771ZM796.493 0V79.5837H797.83V0L796.493 0ZM797.161 78.9149H717.094V80.2525H797.161V78.9149Z" fill="#E0E0E0" fill-opacity="0.62" mask="url(#path-103-inside-52_1285_11264)"/>
<mask id="path-105-inside-53_1285_11264" fill="white">
<path d="M797.16 0L877.228 0V79.5837H797.16V0Z"/>
</mask>
<path d="M797.16 0L877.228 0V79.5837H797.16V0Z" fill="white"/>
<path d="M877.228 0L877.897 0V-0.668771H877.228V0ZM877.228 79.5837V80.2525H877.897V79.5837H877.228ZM797.16 0.668771L877.228 0.668771V-0.668771L797.16 -0.668771V0.668771ZM876.559 0V79.5837H877.897V0L876.559 0ZM877.228 78.9149H797.16V80.2525H877.228V78.9149Z" fill="#E0E0E0" fill-opacity="0.62" mask="url(#path-105-inside-53_1285_11264)"/>
<mask id="path-107-inside-54_1285_11264" fill="white">
<path d="M877.227 0L957.294 0V79.5837H877.227V0Z"/>
</mask>
<path d="M877.227 0L957.294 0V79.5837H877.227V0Z" fill="white"/>
<path d="M957.294 0L957.963 0V-0.668771H957.294V0ZM957.294 79.5837V80.2525H957.963V79.5837H957.294ZM877.227 0.668771L957.294 0.668771V-0.668771L877.227 -0.668771V0.668771ZM956.625 0V79.5837H957.963V0L956.625 0ZM957.294 78.9149H877.227V80.2525H957.294V78.9149Z" fill="#E0E0E0" fill-opacity="0.62" mask="url(#path-107-inside-54_1285_11264)"/>
<mask id="path-109-inside-55_1285_11264" fill="white">
<path d="M957.297 0L1037.36 0V79.5837H957.297V0Z"/>
</mask>
<path d="M957.297 0L1037.36 0V79.5837H957.297V0Z" fill="white"/>
<path d="M1037.36 0L1038.03 0V-0.668771H1037.36V0ZM1037.36 79.5837V80.2525H1038.03V79.5837H1037.36ZM957.297 0.668771L1037.36 0.668771V-0.668771L957.297 -0.668771V0.668771ZM1036.7 0V79.5837H1038.03V0L1036.7 0ZM1037.36 78.9149H957.297V80.2525H1037.36V78.9149Z" fill="#E0E0E0" fill-opacity="0.62" mask="url(#path-109-inside-55_1285_11264)"/>
<mask id="path-111-inside-56_1285_11264" fill="white">
<path d="M1037.36 0L1116.95 0V79.5837H1037.36V0Z"/>
</mask>
<path d="M1037.36 0L1116.95 0V79.5837H1037.36V0Z" fill="#FFF1F8"/>
<path d="M1116.95 79.5837V80.2525H1117.62V79.5837H1116.95ZM1116.28 0V79.5837H1117.62V0L1116.28 0ZM1116.95 78.9149H1037.36V80.2525H1116.95V78.9149Z" fill="#E0E0E0" fill-opacity="0.62" mask="url(#path-111-inside-56_1285_11264)"/>
<mask id="path-113-inside-57_1285_11264" fill="white">
<path d="M1116.95 0L1197.01 0V79.5837H1116.95V0Z"/>
</mask>
<path d="M1116.95 0L1197.01 0V79.5837H1116.95V0Z" fill="white"/>
<path d="M1197.01 0L1197.68 0V-0.668771H1197.01V0ZM1197.01 79.5837V80.2525H1197.68V79.5837H1197.01ZM1116.95 0.668771L1197.01 0.668771V-0.668771L1116.95 -0.668771V0.668771ZM1196.34 0V79.5837H1197.68V0L1196.34 0ZM1197.01 78.9149H1116.95V80.2525H1197.01V78.9149Z" fill="#E0E0E0" fill-opacity="0.62" mask="url(#path-113-inside-57_1285_11264)"/>
<mask id="path-115-inside-58_1285_11264" fill="white">
<path d="M556.957 79.584H637.025V159.168H556.957V79.584Z"/>
</mask>
<path d="M556.957 79.584H637.025V159.168H556.957V79.584Z" fill="white"/>
<path d="M637.025 159.168V159.836H637.693V159.168H637.025ZM636.356 79.584V159.168H637.693V79.584H636.356ZM637.025 158.499H556.957V159.836H637.025V158.499Z" fill="#E0E0E0" fill-opacity="0.62" mask="url(#path-115-inside-58_1285_11264)"/>
<mask id="path-117-inside-59_1285_11264" fill="white">
<path d="M637.023 79.584H717.091V159.168H637.023V79.584Z"/>
</mask>
<path d="M637.023 79.584H717.091V159.168H637.023V79.584Z" fill="white"/>
<path d="M717.091 159.168V159.836H717.76V159.168H717.091ZM716.422 79.584V159.168H717.76V79.584H716.422ZM717.091 158.499H637.023V159.836H717.091V158.499Z" fill="#E0E0E0" fill-opacity="0.62" mask="url(#path-117-inside-59_1285_11264)"/>
<mask id="path-119-inside-60_1285_11264" fill="white">
<path d="M717.094 79.584H797.161V159.168H717.094V79.584Z"/>
</mask>
<path d="M717.094 79.584H797.161V159.168H717.094V79.584Z" fill="white"/>
<path d="M797.161 159.168V159.836H797.83V159.168H797.161ZM796.493 79.584V159.168H797.83V79.584H796.493ZM797.161 158.499H717.094V159.836H797.161V158.499Z" fill="#E0E0E0" fill-opacity="0.62" mask="url(#path-119-inside-60_1285_11264)"/>
<mask id="path-121-inside-61_1285_11264" fill="white">
<path d="M797.16 79.584H877.228V159.168H797.16V79.584Z"/>
</mask>
<path d="M797.16 79.584H877.228V159.168H797.16V79.584Z" fill="white"/>
<path d="M877.228 159.168V159.836H877.897V159.168H877.228ZM876.559 79.584V159.168H877.897V79.584H876.559ZM877.228 158.499H797.16V159.836H877.228V158.499Z" fill="#E0E0E0" fill-opacity="0.62" mask="url(#path-121-inside-61_1285_11264)"/>
<mask id="path-123-inside-62_1285_11264" fill="white">
<path d="M877.227 79.584H956.81V159.168H877.227V79.584Z"/>
</mask>
<path d="M877.227 79.584H956.81V159.168H877.227V79.584Z" fill="#FFF1F8"/>
<path d="M956.81 159.168V159.836H957.479V159.168H956.81ZM956.142 79.584V159.168H957.479V79.584H956.142ZM956.81 158.499H877.227V159.836H956.81V158.499Z" fill="#E0E0E0" fill-opacity="0.62" mask="url(#path-123-inside-62_1285_11264)"/>
<mask id="path-125-inside-63_1285_11264" fill="white">
<path d="M956.812 79.584H1036.88V159.168H956.812V79.584Z"/>
</mask>
<path d="M956.812 79.584H1036.88V159.168H956.812V79.584Z" fill="white"/>
<path d="M1036.88 159.168V159.836H1037.55V159.168H1036.88ZM1036.21 79.584V159.168H1037.55V79.584H1036.21ZM1036.88 158.499H956.812V159.836H1036.88V158.499Z" fill="#E0E0E0" fill-opacity="0.62" mask="url(#path-125-inside-63_1285_11264)"/>
<mask id="path-127-inside-64_1285_11264" fill="white">
<path d="M1036.88 79.584H1116.95V159.168H1036.88V79.584Z"/>
</mask>
<path d="M1036.88 79.584H1116.95V159.168H1036.88V79.584Z" fill="white"/>
<path d="M1116.95 159.168V159.836H1117.62V159.168H1116.95ZM1116.28 79.584V159.168H1117.62V79.584H1116.28ZM1116.95 158.499H1036.88V159.836H1116.95V158.499Z" fill="#E0E0E0" fill-opacity="0.62" mask="url(#path-127-inside-64_1285_11264)"/>
<mask id="path-129-inside-65_1285_11264" fill="white">
<path d="M1116.95 79.584H1197.01V159.168H1116.95V79.584Z"/>
</mask>
<path d="M1116.95 79.584H1197.01V159.168H1116.95V79.584Z" fill="white"/>
<path d="M1197.01 159.168V159.836H1197.68V159.168H1197.01ZM1196.34 79.584V159.168H1197.68V79.584H1196.34ZM1197.01 158.499H1116.95V159.836H1197.01V158.499Z" fill="#E0E0E0" fill-opacity="0.62" mask="url(#path-129-inside-65_1285_11264)"/>
<mask id="path-131-inside-66_1285_11264" fill="white">
<path d="M556.957 159.167H637.025V238.751H556.957V159.167Z"/>
</mask>
<path d="M556.957 159.167H637.025V238.751H556.957V159.167Z" fill="white"/>
<path d="M637.025 238.751V239.419H637.693V238.751H637.025ZM636.356 159.167V238.751H637.693V159.167H636.356ZM637.025 238.082H556.957V239.419H637.025V238.082Z" fill="#E0E0E0" fill-opacity="0.62" mask="url(#path-131-inside-66_1285_11264)"/>
<mask id="path-133-inside-67_1285_11264" fill="white">
<path d="M637.023 159.167H717.091V238.751H637.023V159.167Z"/>
</mask>
<path d="M637.023 159.167H717.091V238.751H637.023V159.167Z" fill="white"/>
<path d="M717.091 238.751V239.419H717.76V238.751H717.091ZM716.422 159.167V238.751H717.76V159.167H716.422ZM717.091 238.082H637.023V239.419H717.091V238.082Z" fill="#E0E0E0" fill-opacity="0.62" mask="url(#path-133-inside-67_1285_11264)"/>
<mask id="path-135-inside-68_1285_11264" fill="white">
<path d="M717.094 159.167H797.161V238.751H717.094V159.167Z"/>
</mask>
<path d="M717.094 159.167H797.161V238.751H717.094V159.167Z" fill="white"/>
<path d="M797.161 238.751V239.419H797.83V238.751H797.161ZM796.493 159.167V238.751H797.83V159.167H796.493ZM797.161 238.082H717.094V239.419H797.161V238.082Z" fill="#E0E0E0" fill-opacity="0.62" mask="url(#path-135-inside-68_1285_11264)"/>
<mask id="path-137-inside-69_1285_11264" fill="white">
<path d="M797.16 159.167H877.228V238.751H797.16V159.167Z"/>
</mask>
<path d="M797.16 159.167H877.228V238.751H797.16V159.167Z" fill="white"/>
<path d="M877.228 238.751V239.419H877.897V238.751H877.228ZM876.559 159.167V238.751H877.897V159.167H876.559ZM877.228 238.082H797.16V239.419H877.228V238.082Z" fill="#E0E0E0" fill-opacity="0.62" mask="url(#path-137-inside-69_1285_11264)"/>
<mask id="path-139-inside-70_1285_11264" fill="white">
<path d="M877.227 159.167H957.294V238.751H877.227V159.167Z"/>
</mask>
<path d="M877.227 159.167H957.294V238.751H877.227V159.167Z" fill="white"/>
<path d="M957.294 238.751V239.419H957.963V238.751H957.294ZM956.625 159.167V238.751H957.963V159.167H956.625ZM957.294 238.082H877.227V239.419H957.294V238.082Z" fill="#E0E0E0" fill-opacity="0.62" mask="url(#path-139-inside-70_1285_11264)"/>
<mask id="path-141-inside-71_1285_11264" fill="white">
<path d="M957.297 159.167H1037.36V238.751H957.297V159.167Z"/>
</mask>
<path d="M957.297 159.167H1037.36V238.751H957.297V159.167Z" fill="white"/>
<path d="M1037.36 238.751V239.419H1038.03V238.751H1037.36ZM1036.7 159.167V238.751H1038.03V159.167H1036.7ZM1037.36 238.082H957.297V239.419H1037.36V238.082Z" fill="#E0E0E0" fill-opacity="0.62" mask="url(#path-141-inside-71_1285_11264)"/>
<mask id="path-143-inside-72_1285_11264" fill="white">
<path d="M1037.36 159.167H1117.43V238.751H1037.36V159.167Z"/>
</mask>
<path d="M1037.36 159.167H1117.43V238.751H1037.36V159.167Z" fill="white"/>
<path d="M1117.43 238.751V239.419H1118.1V238.751H1117.43ZM1116.76 159.167V238.751H1118.1V159.167H1116.76ZM1117.43 238.082H1037.36V239.419H1117.43V238.082Z" fill="#E0E0E0" fill-opacity="0.62" mask="url(#path-143-inside-72_1285_11264)"/>
<mask id="path-145-inside-73_1285_11264" fill="white">
<path d="M1117.43 159.167H1197.5V238.751H1117.43V159.167Z"/>
</mask>
<path d="M1117.43 159.167H1197.5V238.751H1117.43V159.167Z" fill="white"/>
<path d="M1197.5 238.751V239.419H1198.17V238.751H1197.5ZM1196.83 159.167V238.751H1198.17V159.167H1196.83ZM1197.5 238.082H1117.43V239.419H1197.5V238.082Z" fill="#E0E0E0" fill-opacity="0.62" mask="url(#path-145-inside-73_1285_11264)"/>
<mask id="path-147-inside-74_1285_11264" fill="white">
<path d="M556.957 238.751H637.025V318.335H556.957V238.751Z"/>
</mask>
<path d="M556.957 238.751H637.025V318.335H556.957V238.751Z" fill="white"/>
<path d="M637.025 318.335V319.003H637.693V318.335H637.025ZM636.356 238.751V318.335H637.693V238.751H636.356ZM637.025 317.666H556.957V319.003H637.025V317.666Z" fill="#E0E0E0" fill-opacity="0.62" mask="url(#path-147-inside-74_1285_11264)"/>
<mask id="path-149-inside-75_1285_11264" fill="white">
<path d="M637.023 238.751H717.091V318.335H637.023V238.751Z"/>
</mask>
<path d="M637.023 238.751H717.091V318.335H637.023V238.751Z" fill="white"/>
<path d="M717.091 318.335V319.003H717.76V318.335H717.091ZM716.422 238.751V318.335H717.76V238.751H716.422ZM717.091 317.666H637.023V319.003H717.091V317.666Z" fill="#E0E0E0" fill-opacity="0.62" mask="url(#path-149-inside-75_1285_11264)"/>
<mask id="path-151-inside-76_1285_11264" fill="white">
<path d="M717.094 238.751H797.161V318.335H717.094V238.751Z"/>
</mask>
<path d="M717.094 238.751H797.161V318.335H717.094V238.751Z" fill="white"/>
<path d="M797.161 318.335V319.003H797.83V318.335H797.161ZM796.493 238.751V318.335H797.83V238.751H796.493ZM797.161 317.666H717.094V319.003H797.161V317.666Z" fill="#E0E0E0" fill-opacity="0.62" mask="url(#path-151-inside-76_1285_11264)"/>
<mask id="path-153-inside-77_1285_11264" fill="white">
<path d="M797.16 238.751H877.228V318.335H797.16V238.751Z"/>
</mask>
<path d="M797.16 238.751H877.228V318.335H797.16V238.751Z" fill="white"/>
<path d="M877.228 318.335V319.003H877.897V318.335H877.228ZM876.559 238.751V318.335H877.897V238.751H876.559ZM877.228 317.666H797.16V319.003H877.228V317.666Z" fill="#E0E0E0" fill-opacity="0.62" mask="url(#path-153-inside-77_1285_11264)"/>
<mask id="path-155-inside-78_1285_11264" fill="white">
<path d="M877.227 238.751H957.294V318.335H877.227V238.751Z"/>
</mask>
<path d="M877.227 238.751H957.294V318.335H877.227V238.751Z" fill="white"/>
<path d="M957.294 318.335V319.003H957.963V318.335H957.294ZM956.625 238.751V318.335H957.963V238.751H956.625ZM957.294 317.666H877.227V319.003H957.294V317.666Z" fill="#E0E0E0" fill-opacity="0.62" mask="url(#path-155-inside-78_1285_11264)"/>
<mask id="path-157-inside-79_1285_11264" fill="white">
<path d="M957.297 238.751H1037.36V318.335H957.297V238.751Z"/>
</mask>
<path d="M957.297 238.751H1037.36V318.335H957.297V238.751Z" fill="white"/>
<path d="M1037.36 318.335V319.003H1038.03V318.335H1037.36ZM1036.7 238.751V318.335H1038.03V238.751H1036.7ZM1037.36 317.666H957.297V319.003H1037.36V317.666Z" fill="#E0E0E0" fill-opacity="0.62" mask="url(#path-157-inside-79_1285_11264)"/>
<mask id="path-159-inside-80_1285_11264" fill="white">
<path d="M1037.36 238.751H1117.43V318.335H1037.36V238.751Z"/>
</mask>
<path d="M1037.36 238.751H1117.43V318.335H1037.36V238.751Z" fill="white"/>
<path d="M1117.43 318.335V319.003H1118.1V318.335H1117.43ZM1116.76 238.751V318.335H1118.1V238.751H1116.76ZM1117.43 317.666H1037.36V319.003H1117.43V317.666Z" fill="#E0E0E0" fill-opacity="0.62" mask="url(#path-159-inside-80_1285_11264)"/>
<mask id="path-161-inside-81_1285_11264" fill="white">
<path d="M1117.43 238.751H1197.5V318.335H1117.43V238.751Z"/>
</mask>
<path d="M1117.43 238.751H1197.5V318.335H1117.43V238.751Z" fill="white"/>
<path d="M1197.5 318.335V319.003H1198.17V318.335H1197.5ZM1196.83 238.751V318.335H1198.17V238.751H1196.83ZM1197.5 317.666H1117.43V319.003H1197.5V317.666Z" fill="#E0E0E0" fill-opacity="0.62" mask="url(#path-161-inside-81_1285_11264)"/>
<mask id="path-163-inside-82_1285_11264" fill="white">
<path d="M556.957 318.335H637.025V397.919H556.957V318.335Z"/>
</mask>
<path d="M556.957 318.335H637.025V397.919H556.957V318.335Z" fill="white"/>
<path d="M637.025 397.919V398.587H637.693V397.919H637.025ZM636.356 318.335V397.919H637.693V318.335H636.356ZM637.025 397.25H556.957V398.587H637.025V397.25Z" fill="#E0E0E0" fill-opacity="0.62" mask="url(#path-163-inside-82_1285_11264)"/>
<mask id="path-165-inside-83_1285_11264" fill="white">
<path d="M637.023 318.335H716.607V397.919H637.023V318.335Z"/>
</mask>
<path d="M637.023 318.335H716.607V397.919H637.023V318.335Z" fill="#FFF1F8"/>
<path d="M716.607 397.919V398.587H717.276V397.919H716.607ZM715.938 318.335V397.919H717.276V318.335H715.938ZM716.607 397.25H637.023V398.587H716.607V397.25Z" fill="#E0E0E0" fill-opacity="0.62" mask="url(#path-165-inside-83_1285_11264)"/>
<mask id="path-167-inside-84_1285_11264" fill="white">
<path d="M716.609 318.335H796.677V397.919H716.609V318.335Z"/>
</mask>
<path d="M716.609 318.335H796.677V397.919H716.609V318.335Z" fill="white"/>
<path d="M796.677 397.919V398.587H797.346V397.919H796.677ZM796.008 318.335V397.919H797.346V318.335H796.008ZM796.677 397.25H716.609V398.587H796.677V397.25Z" fill="#E0E0E0" fill-opacity="0.62" mask="url(#path-167-inside-84_1285_11264)"/>
<mask id="path-169-inside-85_1285_11264" fill="white">
<path d="M796.676 318.335H876.743V397.919H796.676V318.335Z"/>
</mask>
<path d="M796.676 318.335H876.743V397.919H796.676V318.335Z" fill="white"/>
<path d="M876.743 397.919V398.587H877.412V397.919H876.743ZM876.075 318.335V397.919H877.412V318.335H876.075ZM876.743 397.25H796.676V398.587H876.743V397.25Z" fill="#E0E0E0" fill-opacity="0.62" mask="url(#path-169-inside-85_1285_11264)"/>
<mask id="path-171-inside-86_1285_11264" fill="white">
<path d="M876.742 318.335H956.81V397.919H876.742V318.335Z"/>
</mask>
<path d="M876.742 318.335H956.81V397.919H876.742V318.335Z" fill="white"/>
<path d="M956.81 397.919V398.587H957.479V397.919H956.81ZM956.141 318.335V397.919H957.479V318.335H956.141ZM956.81 397.25H876.742V398.587H956.81V397.25Z" fill="#E0E0E0" fill-opacity="0.62" mask="url(#path-171-inside-86_1285_11264)"/>
<mask id="path-173-inside-87_1285_11264" fill="white">
<path d="M956.812 318.335H1036.88V397.919H956.812V318.335Z"/>
</mask>
<path d="M956.812 318.335H1036.88V397.919H956.812V318.335Z" fill="white"/>
<path d="M1036.88 397.919V398.587H1037.55V397.919H1036.88ZM1036.21 318.335V397.919H1037.55V318.335H1036.21ZM1036.88 397.25H956.812V398.587H1036.88V397.25Z" fill="#E0E0E0" fill-opacity="0.62" mask="url(#path-173-inside-87_1285_11264)"/>
<mask id="path-175-inside-88_1285_11264" fill="white">
<path d="M1036.88 318.335H1116.95V397.919H1036.88V318.335Z"/>
</mask>
<path d="M1036.88 318.335H1116.95V397.919H1036.88V318.335Z" fill="white"/>
<path d="M1116.95 397.919V398.587H1117.62V397.919H1116.95ZM1116.28 318.335V397.919H1117.62V318.335H1116.28ZM1116.95 397.25H1036.88V398.587H1116.95V397.25Z" fill="#E0E0E0" fill-opacity="0.62" mask="url(#path-175-inside-88_1285_11264)"/>
<mask id="path-177-inside-89_1285_11264" fill="white">
<path d="M1116.95 318.335H1197.01V397.919H1116.95V318.335Z"/>
</mask>
<path d="M1116.95 318.335H1197.01V397.919H1116.95V318.335Z" fill="white"/>
<path d="M1197.01 397.919V398.587H1197.68V397.919H1197.01ZM1196.34 318.335V397.919H1197.68V318.335H1196.34ZM1197.01 397.25H1116.95V398.587H1197.01V397.25Z" fill="#E0E0E0" fill-opacity="0.62" mask="url(#path-177-inside-89_1285_11264)"/>
<mask id="path-179-inside-90_1285_11264" fill="white">
<path d="M556.957 397.919H637.025V477.503H556.957V397.919Z"/>
</mask>
<path d="M556.957 397.919H637.025V477.503H556.957V397.919Z" fill="white"/>
<path d="M637.025 477.503V478.171H637.693V477.503H637.025ZM636.356 397.919V477.503H637.693V397.919H636.356ZM637.025 476.834H556.957V478.171H637.025V476.834Z" fill="#E0E0E0" fill-opacity="0.62" mask="url(#path-179-inside-90_1285_11264)"/>
<mask id="path-181-inside-91_1285_11264" fill="white">
<path d="M637.023 397.919H717.091V477.503H637.023V397.919Z"/>
</mask>
<path d="M637.023 397.919H717.091V477.503H637.023V397.919Z" fill="white"/>
<path d="M717.091 477.503V478.171H717.76V477.503H717.091ZM716.422 397.919V477.503H717.76V397.919H716.422ZM717.091 476.834H637.023V478.171H717.091V476.834Z" fill="#E0E0E0" fill-opacity="0.62" mask="url(#path-181-inside-91_1285_11264)"/>
<mask id="path-183-inside-92_1285_11264" fill="white">
<path d="M717.094 397.919H797.161V477.503H717.094V397.919Z"/>
</mask>
<path d="M717.094 397.919H797.161V477.503H717.094V397.919Z" fill="white"/>
<path d="M797.161 477.503V478.171H797.83V477.503H797.161ZM796.493 397.919V477.503H797.83V397.919H796.493ZM797.161 476.834H717.094V478.171H797.161V476.834Z" fill="#E0E0E0" fill-opacity="0.62" mask="url(#path-183-inside-92_1285_11264)"/>
<mask id="path-185-inside-93_1285_11264" fill="white">
<path d="M797.16 397.919H877.228V477.503H797.16V397.919Z"/>
</mask>
<path d="M797.16 397.919H877.228V477.503H797.16V397.919Z" fill="white"/>
<path d="M877.228 477.503V478.171H877.897V477.503H877.228ZM876.559 397.919V477.503H877.897V397.919H876.559ZM877.228 476.834H797.16V478.171H877.228V476.834Z" fill="#E0E0E0" fill-opacity="0.62" mask="url(#path-185-inside-93_1285_11264)"/>
<mask id="path-187-inside-94_1285_11264" fill="white">
<path d="M877.227 397.919H957.294V477.503H877.227V397.919Z"/>
</mask>
<path d="M877.227 397.919H957.294V477.503H877.227V397.919Z" fill="white"/>
<path d="M957.294 477.503V478.171H957.963V477.503H957.294ZM956.625 397.919V477.503H957.963V397.919H956.625ZM957.294 476.834H877.227V478.171H957.294V476.834Z" fill="#E0E0E0" fill-opacity="0.62" mask="url(#path-187-inside-94_1285_11264)"/>
<mask id="path-189-inside-95_1285_11264" fill="white">
<path d="M957.297 397.919H1036.88V477.503H957.297V397.919Z"/>
</mask>
<path d="M957.297 397.919H1036.88V477.503H957.297V397.919Z" fill="#FFF1F8"/>
<path d="M1036.88 477.503V478.171H1037.55V477.503H1036.88ZM1036.21 397.919V477.503H1037.55V397.919H1036.21ZM1036.88 476.834H957.297V478.171H1036.88V476.834Z" fill="#E0E0E0" fill-opacity="0.62" mask="url(#path-189-inside-95_1285_11264)"/>
<mask id="path-191-inside-96_1285_11264" fill="white">
<path d="M1036.88 397.919H1116.95V477.503H1036.88V397.919Z"/>
</mask>
<path d="M1036.88 397.919H1116.95V477.503H1036.88V397.919Z" fill="white"/>
<path d="M1116.95 477.503V478.171H1117.62V477.503H1116.95ZM1116.28 397.919V477.503H1117.62V397.919H1116.28ZM1116.95 476.834H1036.88V478.171H1116.95V476.834Z" fill="#E0E0E0" fill-opacity="0.62" mask="url(#path-191-inside-96_1285_11264)"/>
<mask id="path-193-inside-97_1285_11264" fill="white">
<path d="M1116.95 397.919H1197.01V477.503H1116.95V397.919Z"/>
</mask>
<path d="M1116.95 397.919H1197.01V477.503H1116.95V397.919Z" fill="white"/>
<path d="M1197.01 477.503V478.171H1197.68V477.503H1197.01ZM1196.34 397.919V477.503H1197.68V397.919H1196.34ZM1197.01 476.834H1116.95V478.171H1197.01V476.834Z" fill="#E0E0E0" fill-opacity="0.62" mask="url(#path-193-inside-97_1285_11264)"/>
<mask id="path-195-inside-98_1285_11264" fill="white">
<path d="M556.957 477.502H637.025V557.086H556.957V477.502Z"/>
</mask>
<path d="M556.957 477.502H637.025V557.086H556.957V477.502Z" fill="white"/>
<path d="M637.025 557.086V557.754H637.693V557.086H637.025ZM636.356 477.502V557.086H637.693V477.502H636.356ZM637.025 556.417H556.957V557.754H637.025V556.417Z" fill="#E0E0E0" fill-opacity="0.62" mask="url(#path-195-inside-98_1285_11264)"/>
<mask id="path-197-inside-99_1285_11264" fill="white">
<path d="M637.023 477.502H717.091V557.086H637.023V477.502Z"/>
</mask>
<path d="M637.023 477.502H717.091V557.086H637.023V477.502Z" fill="white"/>
<path d="M717.091 557.086V557.754H717.76V557.086H717.091ZM716.422 477.502V557.086H717.76V477.502H716.422ZM717.091 556.417H637.023V557.754H717.091V556.417Z" fill="#E0E0E0" fill-opacity="0.62" mask="url(#path-197-inside-99_1285_11264)"/>
<mask id="path-199-inside-100_1285_11264" fill="white">
<path d="M717.094 477.502H796.677V557.086H717.094V477.502Z"/>
</mask>
<path d="M717.094 477.502H796.677V557.086H717.094V477.502Z" fill="#FFF1F8"/>
<path d="M796.677 557.086V557.754H797.346V557.086H796.677ZM796.009 477.502V557.086H797.346V477.502H796.009ZM796.677 556.417H717.094V557.754H796.677V556.417Z" fill="#E0E0E0" fill-opacity="0.62" mask="url(#path-199-inside-100_1285_11264)"/>
<mask id="path-201-inside-101_1285_11264" fill="white">
<path d="M796.676 477.502H876.743V557.086H796.676V477.502Z"/>
</mask>
<path d="M796.676 477.502H876.743V557.086H796.676V477.502Z" fill="white"/>
<path d="M876.743 557.086V557.754H877.412V557.086H876.743ZM876.075 477.502V557.086H877.412V477.502H876.075ZM876.743 556.417H796.676V557.754H876.743V556.417Z" fill="#E0E0E0" fill-opacity="0.62" mask="url(#path-201-inside-101_1285_11264)"/>
<mask id="path-203-inside-102_1285_11264" fill="white">
<path d="M876.742 477.502H956.81V557.086H876.742V477.502Z"/>
</mask>
<path d="M876.742 477.502H956.81V557.086H876.742V477.502Z" fill="white"/>
<path d="M956.81 557.086V557.754H957.479V557.086H956.81ZM956.141 477.502V557.086H957.479V477.502H956.141ZM956.81 556.417H876.742V557.754H956.81V556.417Z" fill="#E0E0E0" fill-opacity="0.62" mask="url(#path-203-inside-102_1285_11264)"/>
<mask id="path-205-inside-103_1285_11264" fill="white">
<path d="M956.812 477.502H1036.88V557.086H956.812V477.502Z"/>
</mask>
<path d="M956.812 477.502H1036.88V557.086H956.812V477.502Z" fill="white"/>
<path d="M1036.88 557.086V557.754H1037.55V557.086H1036.88ZM1036.21 477.502V557.086H1037.55V477.502H1036.21ZM1036.88 556.417H956.812V557.754H1036.88V556.417Z" fill="#E0E0E0" fill-opacity="0.62" mask="url(#path-205-inside-103_1285_11264)"/>
<mask id="path-207-inside-104_1285_11264" fill="white">
<path d="M1036.88 477.502H1116.95V557.086H1036.88V477.502Z"/>
</mask>
<path d="M1036.88 477.502H1116.95V557.086H1036.88V477.502Z" fill="white"/>
<path d="M1116.95 557.086V557.754H1117.62V557.086H1116.95ZM1116.28 477.502V557.086H1117.62V477.502H1116.28ZM1116.95 556.417H1036.88V557.754H1116.95V556.417Z" fill="#E0E0E0" fill-opacity="0.62" mask="url(#path-207-inside-104_1285_11264)"/>
<mask id="path-209-inside-105_1285_11264" fill="white">
<path d="M1116.95 477.502H1197.01V557.086H1116.95V477.502Z"/>
</mask>
<path d="M1116.95 477.502H1197.01V557.086H1116.95V477.502Z" fill="white"/>
<path d="M1197.01 557.086V557.754H1197.68V557.086H1197.01ZM1196.34 477.502V557.086H1197.68V477.502H1196.34ZM1197.01 556.417H1116.95V557.754H1197.01V556.417Z" fill="#E0E0E0" fill-opacity="0.62" mask="url(#path-209-inside-105_1285_11264)"/>
<g filter="url(#filter0_f_1285_11264)">
<path d="M508.822 -26.6482C505.745 -25.7249 500.841 -24.2206 494.935 -21.7887C444.653 -28.3031 385.758 -32.2076 326.302 -30.1817C279.027 -28.5709 227.734 -23.1143 178.744 -10.3593C176.921 -11.7445 175.011 -13.0973 173.009 -14.4077C150.203 -29.3396 123.634 -33.4107 99.2434 -28.2926C77.8968 -23.8134 62.6169 -13.3421 53.9185 -6.23804C44.6842 1.30364 37.5658 9.42517 32.4133 16.0166C22.148 29.1485 13.7131 43.9591 7.0564 57.1992C-6.52564 84.2138 -18.647 116.687 -27.4372 146.824C-35.7145 175.202 -43.6162 210.149 -43.6162 240.076C-43.6162 268.472 -45.0011 293.825 -46.5238 317.616C-46.7435 321.05 -46.9734 324.539 -47.2056 328.064C-48.4923 347.598 -49.851 368.222 -49.9633 386.564C-50.2287 429.916 -44.4087 494.177 15.2699 538.459C62.1628 573.255 128.758 583.172 198.593 588.363C274.017 593.97 378.941 594.858 521.548 594.858C615.615 594.858 692.037 597.736 758.46 600.237C793.137 601.542 825.089 602.745 855.403 603.383C897.694 604.272 937.207 604.005 972.248 600.224C1007.09 596.464 1043.47 588.685 1076.51 570.727C1152.74 529.29 1177.11 454.47 1184.6 377.411C1191.89 302.404 1185.75 199.355 1176.36 66.4544L1170.98 -9.71344L1094.92 -16.4209C849.105 -38.0975 699.378 -43.0009 611.513 -39.6332C569.216 -38.0121 534.368 -34.3129 508.822 -26.6482Z" stroke="url(#paint0_radial_1285_11264)" stroke-width="179.06"/>
</g>
</g>
<defs>
<filter id="filter0_f_1285_11264" x="-171.876" y="-162.503" width="1481.58" height="888.22" filterUnits="userSpaceOnUse" color-interpolation-filters="sRGB">
<feFlood flood-opacity="0" result="BackgroundImageFix"/>
<feBlend mode="normal" in="SourceGraphic" in2="BackgroundImageFix" result="shape"/>
<feGaussianBlur stdDeviation="16.1882" result="effect1_foregroundBlur_1285_11264"/>
</filter>
<radialGradient id="paint0_radial_1285_11264" cx="0" cy="0" r="1" gradientUnits="userSpaceOnUse" gradientTransform="translate(568.93 281.602) rotate(90) scale(232.674 529.371)">
<stop stop-color="white"/>
<stop offset="1" stop-color="white" stop-opacity="0.65"/>
</radialGradient>
<clipPath id="clip0_1285_11264">
<rect width="1172.22" height="558" fill="white"/>
</clipPath>
</defs>
</svg>
