<svg width="18" height="18" viewBox="0 0 18 18" fill="none" xmlns="http://www.w3.org/2000/svg">
<g id="ArrowDown">
<path id="Vector" d="M10.523 3.53922L15.5855 8.60172C15.6378 8.65396 15.6793 8.716 15.7076 8.78428C15.7359 8.85257 15.7504 8.92577 15.7504 8.99969C15.7504 9.07361 15.7359 9.1468 15.7076 9.21509C15.6793 9.28338 15.6378 9.34542 15.5855 9.39766L10.523 14.4602C10.4174 14.5657 10.2743 14.625 10.125 14.625C9.97573 14.625 9.83258 14.5657 9.72703 14.4602C9.62148 14.3546 9.56219 14.2115 9.56219 14.0622C9.56219 13.9129 9.62148 13.7698 9.72703 13.6642L13.8298 9.56219L2.8125 9.56219C2.66332 9.56219 2.52024 9.50292 2.41475 9.39744C2.30926 9.29195 2.25 9.14887 2.25 8.99969C2.25 8.8505 2.30926 8.70743 2.41475 8.60194C2.52024 8.49645 2.66332 8.43719 2.8125 8.43719L13.8298 8.43719L9.72703 4.33516C9.62148 4.22961 9.56219 4.08646 9.56219 3.93719C9.56219 3.78792 9.62148 3.64477 9.72703 3.53922C9.83258 3.43367 9.97573 3.37437 10.125 3.37437C10.2743 3.37437 10.4174 3.43367 10.523 3.53922Z" fill="#A2195E"/>
</g>
</svg>
