<svg width="24" height="24" viewBox="0 0 24 24" fill="none" xmlns="http://www.w3.org/2000/svg">
<path d="M12 2.25C10.0716 2.25 8.18657 2.82183 6.58319 3.89317C4.97982 4.96452 3.73013 6.48726 2.99218 8.26884C2.25422 10.0504 2.06114 12.0108 2.43735 13.9021C2.81355 15.7934 3.74215 17.5307 5.10571 18.8943C6.46927 20.2579 8.20656 21.1865 10.0979 21.5627C11.9892 21.9389 13.9496 21.7458 15.7312 21.0078C17.5127 20.2699 19.0355 19.0202 20.1068 17.4168C21.1782 15.8134 21.75 13.9284 21.75 12C21.7473 9.41498 20.7192 6.93661 18.8913 5.10872C17.0634 3.28084 14.585 2.25273 12 2.25ZM12 20.25C10.3683 20.25 8.77326 19.7661 7.41655 18.8596C6.05984 17.9531 5.00242 16.6646 4.378 15.1571C3.75358 13.6496 3.5902 11.9908 3.90853 10.3905C4.22685 8.79016 5.01259 7.32015 6.16637 6.16637C7.32016 5.01259 8.79017 4.22685 10.3905 3.90852C11.9909 3.59019 13.6497 3.75357 15.1571 4.37799C16.6646 5.00242 17.9531 6.05984 18.8596 7.41655C19.7661 8.77325 20.25 10.3683 20.25 12C20.2475 14.1873 19.3775 16.2843 17.8309 17.8309C16.2843 19.3775 14.1873 20.2475 12 20.25Z" fill="#B0B0B0"/>
<path d="M12.9996 7.13966H15.8532C16.01 7.13966 16.1586 7.07235 16.267 6.95536C16.3751 6.83864 16.4346 6.68185 16.4346 6.51983C16.4346 6.35781 16.3751 6.20103 16.267 6.0843C16.1586 5.96732 16.01 5.9 15.8532 5.9H8.14945C7.99265 5.9 7.84398 5.96732 7.73563 6.0843C7.62751 6.20103 7.56797 6.35781 7.56797 6.51983C7.56797 6.68185 7.62751 6.83864 7.73563 6.95536C7.84398 7.07235 7.99265 7.13966 8.14945 7.13966H10.3161C10.7839 7.13992 11.2431 7.27965 11.6431 7.54429C12.0005 7.78069 12.2984 8.10875 12.5107 8.49916H8.14945C7.99265 8.49916 7.84398 8.56648 7.73563 8.68346C7.62751 8.80019 7.56797 8.95697 7.56797 9.11899C7.56797 9.28102 7.62751 9.4378 7.73563 9.55452C7.84398 9.67151 7.99265 9.73883 8.14945 9.73883H12.8596C12.8626 9.79185 12.8643 9.84506 12.8643 9.89864C12.8635 10.6325 12.5931 11.3347 12.1144 11.8515C11.636 12.368 10.989 12.657 10.316 12.6578H8.14945H8.14944C8.03025 12.6578 7.9146 12.6968 7.81772 12.7686C7.72096 12.8402 7.64766 12.9409 7.60625 13.0565C7.56485 13.1722 7.5569 13.2983 7.58325 13.4186C7.6096 13.539 7.66928 13.649 7.75561 13.7337C7.75561 13.7337 7.75561 13.7337 7.75561 13.7337L13.0511 18.9312C13.0512 18.9313 13.0513 18.9315 13.0515 18.9316C13.1074 18.9877 13.1735 19.0317 13.2461 19.0607C13.3189 19.0897 13.3966 19.103 13.4746 19.0994C13.5526 19.0959 13.6289 19.0757 13.6991 19.0403C13.7692 19.0049 13.8316 18.9551 13.8828 18.8942C13.9341 18.8333 13.9733 18.7624 13.9986 18.6858C14.0238 18.6092 14.0347 18.5282 14.0307 18.4473C14.0267 18.3664 14.0078 18.2869 13.975 18.2135C13.9423 18.1403 13.8962 18.0743 13.8392 18.0195C13.839 18.0194 13.8389 18.0192 13.8387 18.0191L9.63933 13.8975H10.3161H10.3162C11.3027 13.8962 12.2467 13.4726 12.9417 12.7222C13.6365 11.9721 14.0261 10.9566 14.0272 9.89885V9.89874C14.0272 9.84482 14.0259 9.79154 14.0237 9.73883H15.8532C16.01 9.73883 16.1586 9.67151 16.267 9.55452C16.3751 9.4378 16.4346 9.28102 16.4346 9.11899C16.4346 8.95697 16.3751 8.80019 16.267 8.68346C16.1586 8.56648 16.01 8.49916 15.8532 8.49916H13.7919C13.6155 7.99284 13.3459 7.53042 12.9996 7.13966Z" fill="#B0B0B0" stroke="#B0B0B0" stroke-width="0.2"/>
</svg>
