<svg width="22" height="23" viewBox="0 0 22 23" fill="none" xmlns="http://www.w3.org/2000/svg">
<path d="M19.25 4.14062H2.75C2.56766 4.14062 2.3928 4.21306 2.26386 4.34199C2.13493 4.47092 2.0625 4.64579 2.0625 4.82812V16.5156C2.0625 16.8803 2.20737 17.23 2.46523 17.4879C2.72309 17.7458 3.07283 17.8906 3.4375 17.8906H18.5625C18.9272 17.8906 19.2769 17.7458 19.5348 17.4879C19.7926 17.23 19.9375 16.8803 19.9375 16.5156V4.82812C19.9375 4.64579 19.8651 4.47092 19.7361 4.34199C19.6072 4.21306 19.4323 4.14062 19.25 4.14062ZM17.4823 5.51562L11 11.4582L4.51773 5.51562H17.4823ZM18.5625 16.5156H3.4375V6.39133L10.5351 12.8977C10.6619 13.0141 10.8278 13.0787 11 13.0787C11.1722 13.0787 11.3381 13.0141 11.4649 12.8977L18.5625 6.39133V16.5156Z" fill="#D486AD"/>
</svg>
