<svg width="24" height="25" viewBox="0 0 24 25" fill="none" xmlns="http://www.w3.org/2000/svg">
<path fill-rule="evenodd" clip-rule="evenodd" d="M6.18182 10.3489C5.20406 10.3489 5 10.5408 5 11.46V13.1267C5 14.046 5.20406 14.2378 6.18182 14.2378H8.54545V20.9045C8.54545 21.8237 8.74951 22.0156 9.72727 22.0156H12.0909C13.0687 22.0156 13.2727 21.8237 13.2727 20.9045V14.2378H15.9267C16.6683 14.2378 16.8594 14.1023 17.0631 13.432L17.5696 11.7653C17.9185 10.617 17.7035 10.3489 16.4332 10.3489H13.2727V7.57119C13.2727 6.95754 13.8018 6.46006 14.4545 6.46006H17.8182C18.7959 6.46006 19 6.26822 19 5.34896V3.12673C19 2.20747 18.7959 2.01562 17.8182 2.01562H14.4545C11.191 2.01562 8.54545 4.50294 8.54545 7.57119V10.3489H6.18182Z" fill="white"/>
</svg>
