<svg width="1440" height="741" viewBox="0 0 1440 741" fill="none" xmlns="http://www.w3.org/2000/svg">
<rect width="1443" height="741" fill="white"/>
<path d="M110.685 45.6454C121.692 34.7337 213.538 61.1964 258.085 75.7916L211.432 143.028C190.076 134.02 172.861 129.744 160.236 128.021C145.727 126.041 132.037 133.963 126.088 147.344C110.985 181.315 138.857 191.64 157.475 192.322C162.899 191.834 170.6 191.439 179.602 191.399C190.861 191.349 204.156 191.853 217.579 193.424C230.269 194.91 243.073 197.348 254.38 201.172C273.177 207.528 280.678 218.478 281.771 228.169C283.064 239.637 275.384 249.343 266.824 247.593C252.658 244.696 213.078 236.601 170.794 247.744C165.939 249.024 161.048 250.557 156.155 252.381C152.339 253.804 148.415 255.063 144.417 256.168C98.6601 268.82 43.3136 261.329 30.7699 248.675C19.8583 237.669 -32.7208 228.378 -57.6463 225.108C-55.3741 187.181 -46.4027 111.137 -28.6957 110.37C-6.56188 109.413 96.9265 59.285 110.685 45.6454Z" fill="#A2195E"/>
<path d="M281.771 228.169C280.678 218.478 273.177 207.528 254.38 201.172C243.073 197.348 230.269 194.91 217.579 193.424C230.574 103.067 349.381 165.756 281.771 228.169Z" fill="#589B63"/>
<path d="M404.415 111.198L376.984 149.464C368.775 141.108 355.168 116.006 366.42 82.4434L404.415 111.198Z" fill="#589B63"/>
<path d="M268.571 62.4313L295.179 28.528L328.425 53.6885C306.973 72.7652 279.584 67.4657 268.571 62.4313Z" fill="#589B63"/>
<path d="M260.406 312.094L243.262 336.01L210.314 309.396C229.419 301.791 251.669 308.026 260.406 312.094Z" fill="#589B63"/>
<path d="M144.417 256.168C148.415 255.063 152.339 253.804 156.155 252.381C161.048 250.557 165.939 249.024 170.794 247.744C170.679 252.82 169.007 264.653 163.245 271.376L144.417 256.168Z" fill="#589B63"/>
<path d="M211.432 143.028L258.085 75.7916L268.571 62.4313C279.584 67.4657 306.973 72.7652 328.425 53.6885L366.42 82.4434C355.168 116.006 368.775 141.108 376.984 149.464L260.406 312.094C251.669 308.026 229.419 301.791 210.314 309.396L163.245 271.376C169.007 264.653 170.679 252.82 170.794 247.744C213.078 236.601 252.658 244.696 266.824 247.593C275.384 249.343 283.064 239.637 281.771 228.169C349.381 165.756 230.574 103.067 217.579 193.424C204.156 191.853 190.861 191.349 179.602 191.399L211.432 143.028Z" fill="#B6D48A"/>
<path d="M1598.2 540.893C1579.95 528.859 1539.81 504.808 1525.25 504.882C1510.75 504.956 1422.57 565.518 1337.7 601.396C1297.13 618.543 1252.26 621.458 1209.24 612.026C1178.17 605.214 1142.7 594.992 1110.82 580.517C1091.27 571.643 1077.92 549.588 1097.64 541.098C1116.44 533.003 1153.11 527.705 1219.77 531.909C1251.29 528.11 1328.07 508.071 1383.12 458.309C1398.32 445.151 1396.07 431.493 1294.04 437.838C1270.39 439.308 1248.55 423.209 1266.09 407.282C1286.98 388.311 1335.93 366.283 1437.14 348.885C1655.24 311.389 1659.57 445.984 1598.2 540.893Z" fill="#A2195E"/>
</svg>
