<svg width="182" height="65" viewBox="0 0 182 65" fill="none" xmlns="http://www.w3.org/2000/svg">
<rect x="0.5" y="1" width="181" height="63" rx="6.5" fill="black"/>
<rect x="0.5" y="1" width="181" height="63" rx="6.5" stroke="#878787"/>
<path d="M30.5206 20.8666C31.1664 20.1222 31.6589 19.2576 31.9696 18.3224C32.2804 17.3872 32.4033 16.3998 32.3314 15.417C30.3487 15.577 28.5082 16.5096 27.2064 18.0137C26.5831 18.7345 26.1107 19.5732 25.8172 20.4799C25.5238 21.3866 25.4153 22.343 25.4981 23.2924C26.4653 23.3005 27.4213 23.0859 28.2923 22.6652C29.1632 22.2446 29.9256 21.6291 30.5206 20.8666ZM34.8256 33.5766C34.8371 32.2675 35.1819 30.983 35.8275 29.8442C36.4731 28.7054 37.3983 27.7499 38.5156 27.0678C37.8104 26.0518 36.8782 25.214 35.7929 24.6209C34.7076 24.0279 33.4991 23.6958 32.2631 23.6512C29.5981 23.3778 27.1381 25.2057 25.7202 25.2057C24.3023 25.2057 22.3035 23.6853 20.0827 23.7195C18.6308 23.7673 17.2161 24.1906 15.9766 24.9481C14.7371 25.7056 13.7151 26.7714 13.0102 28.0416C10.0035 33.2691 12.2414 41.042 15.2481 45.2616C16.6148 47.3287 18.3231 49.6691 20.5781 49.5837C22.8331 49.4982 23.5677 48.1828 26.1814 48.1828C28.7952 48.1828 29.5981 49.5837 31.8189 49.5324C34.0398 49.4812 35.6114 47.4141 37.0464 45.347C38.063 43.8463 38.857 42.2064 39.4039 40.4782C38.0501 39.9009 36.8949 38.9395 36.0813 37.713C35.2677 36.4864 34.8311 35.0484 34.8256 33.5766Z" fill="white"/>
<path d="M62.864 24V15.408H65.492C66.804 15.408 67.856 15.804 68.648 16.596C69.448 17.388 69.848 18.424 69.848 19.704C69.848 20.992 69.448 22.032 68.648 22.824C67.856 23.608 66.804 24 65.492 24H62.864ZM63.968 16.464V22.944H65.492C66.492 22.944 67.28 22.66 67.856 22.092C68.432 21.516 68.72 20.72 68.72 19.704C68.72 18.696 68.432 17.904 67.856 17.328C67.28 16.752 66.492 16.464 65.492 16.464H63.968ZM70.4571 21.06C70.4571 20.156 70.7411 19.408 71.3091 18.816C71.8851 18.224 72.6091 17.928 73.4811 17.928C74.3531 17.928 75.0731 18.224 75.6411 18.816C76.2171 19.408 76.5051 20.156 76.5051 21.06C76.5051 21.972 76.2171 22.72 75.6411 23.304C75.0731 23.896 74.3531 24.192 73.4811 24.192C72.6091 24.192 71.8851 23.896 71.3091 23.304C70.7411 22.712 70.4571 21.964 70.4571 21.06ZM71.5611 21.06C71.5611 21.692 71.7451 22.204 72.1131 22.596C72.4811 22.988 72.9371 23.184 73.4811 23.184C74.0251 23.184 74.4811 22.988 74.8491 22.596C75.2171 22.204 75.4011 21.692 75.4011 21.06C75.4011 20.436 75.2171 19.928 74.8491 19.536C74.4731 19.136 74.0171 18.936 73.4811 18.936C72.9451 18.936 72.4891 19.136 72.1131 19.536C71.7451 19.928 71.5611 20.436 71.5611 21.06ZM85.7188 18.12L83.8228 24H82.6948L81.2308 19.488L79.7788 24H78.6628L76.7668 18.12H77.9188L79.2268 22.56H79.2388L80.6908 18.12H81.8308L83.2828 22.56H83.2948L84.5908 18.12H85.7188ZM86.4376 18.12H87.4936V18.936H87.5416C87.7096 18.648 87.9656 18.408 88.3096 18.216C88.6616 18.024 89.0256 17.928 89.4016 17.928C90.1216 17.928 90.6736 18.136 91.0576 18.552C91.4496 18.96 91.6456 19.544 91.6456 20.304V24H90.5416V20.376C90.5176 19.416 90.0336 18.936 89.0896 18.936C88.6496 18.936 88.2816 19.116 87.9856 19.476C87.6896 19.828 87.5416 20.252 87.5416 20.748V24H86.4376V18.12ZM94.0455 15.408V24H92.9415V15.408H94.0455ZM94.9962 21.06C94.9962 20.156 95.2802 19.408 95.8482 18.816C96.4242 18.224 97.1482 17.928 98.0202 17.928C98.8922 17.928 99.6122 18.224 100.18 18.816C100.756 19.408 101.044 20.156 101.044 21.06C101.044 21.972 100.756 22.72 100.18 23.304C99.6122 23.896 98.8922 24.192 98.0202 24.192C97.1482 24.192 96.4242 23.896 95.8482 23.304C95.2802 22.712 94.9962 21.964 94.9962 21.06ZM96.1002 21.06C96.1002 21.692 96.2842 22.204 96.6522 22.596C97.0202 22.988 97.4762 23.184 98.0202 23.184C98.5642 23.184 99.0202 22.988 99.3882 22.596C99.7562 22.204 99.9402 21.692 99.9402 21.06C99.9402 20.436 99.7562 19.928 99.3882 19.536C99.0122 19.136 98.5562 18.936 98.0202 18.936C97.4842 18.936 97.0282 19.136 96.6522 19.536C96.2842 19.928 96.1002 20.436 96.1002 21.06ZM102.851 22.2C102.851 22.488 102.971 22.728 103.211 22.92C103.459 23.112 103.747 23.208 104.075 23.208C104.539 23.208 104.951 23.036 105.311 22.692C105.679 22.348 105.863 21.944 105.863 21.48C105.519 21.208 105.039 21.072 104.423 21.072C103.975 21.072 103.599 21.18 103.295 21.396C102.999 21.612 102.851 21.88 102.851 22.2ZM104.279 17.928C105.095 17.928 105.739 18.148 106.211 18.588C106.683 19.02 106.919 19.616 106.919 20.376V24H105.863V23.184H105.815C105.359 23.856 104.751 24.192 103.991 24.192C103.343 24.192 102.799 24 102.359 23.616C101.927 23.232 101.711 22.752 101.711 22.176C101.711 21.568 101.939 21.084 102.395 20.724C102.859 20.364 103.475 20.184 104.243 20.184C104.899 20.184 105.439 20.304 105.863 20.544V20.292C105.863 19.908 105.711 19.584 105.407 19.32C105.103 19.048 104.747 18.912 104.339 18.912C103.723 18.912 103.235 19.172 102.875 19.692L101.903 19.08C102.439 18.312 103.231 17.928 104.279 17.928ZM110.746 23.184C111.29 23.184 111.734 22.988 112.078 22.596C112.438 22.204 112.618 21.692 112.618 21.06C112.618 20.444 112.438 19.936 112.078 19.536C111.726 19.136 111.282 18.936 110.746 18.936C110.218 18.936 109.774 19.136 109.414 19.536C109.054 19.936 108.874 20.444 108.874 21.06C108.874 21.684 109.054 22.192 109.414 22.584C109.774 22.984 110.218 23.184 110.746 23.184ZM110.566 24.192C109.798 24.192 109.138 23.888 108.586 23.28C108.042 22.664 107.77 21.924 107.77 21.06C107.77 20.196 108.042 19.456 108.586 18.84C109.138 18.232 109.798 17.928 110.566 17.928C110.998 17.928 111.39 18.02 111.742 18.204C112.102 18.388 112.378 18.632 112.57 18.936H112.618L112.57 18.12V15.408H113.674V24H112.618V23.184H112.57C112.378 23.488 112.102 23.732 111.742 23.916C111.39 24.1 110.998 24.192 110.566 24.192ZM117.32 21.06C117.32 20.156 117.604 19.408 118.172 18.816C118.748 18.224 119.472 17.928 120.344 17.928C121.216 17.928 121.936 18.224 122.504 18.816C123.08 19.408 123.368 20.156 123.368 21.06C123.368 21.972 123.08 22.72 122.504 23.304C121.936 23.896 121.216 24.192 120.344 24.192C119.472 24.192 118.748 23.896 118.172 23.304C117.604 22.712 117.32 21.964 117.32 21.06ZM118.424 21.06C118.424 21.692 118.608 22.204 118.976 22.596C119.344 22.988 119.8 23.184 120.344 23.184C120.888 23.184 121.344 22.988 121.712 22.596C122.08 22.204 122.264 21.692 122.264 21.06C122.264 20.436 122.08 19.928 121.712 19.536C121.336 19.136 120.88 18.936 120.344 18.936C119.808 18.936 119.352 19.136 118.976 19.536C118.608 19.928 118.424 20.436 118.424 21.06ZM124.254 18.12H125.31V18.936H125.358C125.526 18.648 125.782 18.408 126.126 18.216C126.478 18.024 126.842 17.928 127.218 17.928C127.938 17.928 128.49 18.136 128.874 18.552C129.266 18.96 129.462 19.544 129.462 20.304V24H128.358V20.376C128.334 19.416 127.85 18.936 126.906 18.936C126.466 18.936 126.098 19.116 125.802 19.476C125.506 19.828 125.358 20.252 125.358 20.748V24H124.254V18.12ZM135.723 24.096C135.243 24.096 134.843 23.948 134.523 23.652C134.211 23.356 134.051 22.944 134.043 22.416V19.128H133.011V18.12H134.043V16.32H135.147V18.12H136.587V19.128H135.147V22.056C135.147 22.448 135.223 22.716 135.375 22.86C135.527 22.996 135.699 23.064 135.891 23.064C135.979 23.064 136.063 23.056 136.143 23.04C136.231 23.016 136.311 22.988 136.383 22.956L136.731 23.94C136.443 24.044 136.107 24.096 135.723 24.096ZM137.695 15.408H138.799V18.12L138.751 18.936H138.799C138.967 18.648 139.223 18.408 139.567 18.216C139.919 18.024 140.283 17.928 140.659 17.928C141.379 17.928 141.931 18.136 142.315 18.552C142.707 18.96 142.903 19.544 142.903 20.304V24H141.799V20.52C141.799 19.464 141.331 18.936 140.395 18.936C139.947 18.936 139.567 19.124 139.255 19.5C138.951 19.868 138.799 20.3 138.799 20.796V24H137.695V15.408ZM146.839 24.192C145.975 24.192 145.263 23.896 144.703 23.304C144.143 22.712 143.863 21.964 143.863 21.06C143.863 20.164 144.135 19.42 144.679 18.828C145.223 18.228 145.919 17.928 146.767 17.928C147.639 17.928 148.331 18.212 148.843 18.78C149.363 19.34 149.623 20.128 149.623 21.144L149.611 21.264H144.991C145.007 21.84 145.199 22.304 145.567 22.656C145.935 23.008 146.375 23.184 146.887 23.184C147.591 23.184 148.143 22.832 148.543 22.128L149.527 22.608C149.263 23.104 148.895 23.492 148.423 23.772C147.959 24.052 147.431 24.192 146.839 24.192ZM145.075 20.352H148.447C148.415 19.944 148.247 19.608 147.943 19.344C147.647 19.072 147.247 18.936 146.743 18.936C146.327 18.936 145.967 19.064 145.663 19.32C145.367 19.576 145.171 19.92 145.075 20.352Z" fill="#E2E2E2"/>
<path d="M68.972 35.337L66.515 42.12H71.513L69.056 35.337H68.972ZM64.394 48H62.252L67.922 32.964H70.106L75.776 48H73.634L72.185 43.926H65.864L64.394 48ZM82.3459 46.572C83.2699 46.572 84.0469 46.222 84.6769 45.522C85.3069 44.836 85.6219 43.947 85.6219 42.855C85.6219 41.777 85.3069 40.888 84.6769 40.188C84.0469 39.488 83.2699 39.138 82.3459 39.138C81.4079 39.138 80.6239 39.488 79.9939 40.188C79.3779 40.888 79.0699 41.777 79.0699 42.855C79.0699 43.947 79.3779 44.843 79.9939 45.543C80.6239 46.229 81.4079 46.572 82.3459 46.572ZM82.6609 48.336C81.9049 48.336 81.2119 48.175 80.5819 47.853C79.9659 47.531 79.4899 47.104 79.1539 46.572H79.0699L79.1539 48V52.536H77.2219V37.71H79.0699V39.138H79.1539C79.4899 38.606 79.9659 38.179 80.5819 37.857C81.2119 37.535 81.9049 37.374 82.6609 37.374C84.0189 37.374 85.1669 37.906 86.1049 38.97C87.0709 40.048 87.5539 41.343 87.5539 42.855C87.5539 44.381 87.0709 45.676 86.1049 46.74C85.1669 47.804 84.0189 48.336 82.6609 48.336ZM94.1584 46.572C95.0824 46.572 95.8594 46.222 96.4894 45.522C97.1194 44.836 97.4344 43.947 97.4344 42.855C97.4344 41.777 97.1194 40.888 96.4894 40.188C95.8594 39.488 95.0824 39.138 94.1584 39.138C93.2204 39.138 92.4364 39.488 91.8064 40.188C91.1904 40.888 90.8824 41.777 90.8824 42.855C90.8824 43.947 91.1904 44.843 91.8064 45.543C92.4364 46.229 93.2204 46.572 94.1584 46.572ZM94.4734 48.336C93.7174 48.336 93.0244 48.175 92.3944 47.853C91.7784 47.531 91.3024 47.104 90.9664 46.572H90.8824L90.9664 48V52.536H89.0344V37.71H90.8824V39.138H90.9664C91.3024 38.606 91.7784 38.179 92.3944 37.857C93.0244 37.535 93.7174 37.374 94.4734 37.374C95.8314 37.374 96.9794 37.906 97.9174 38.97C98.8834 40.048 99.3664 41.343 99.3664 42.855C99.3664 44.381 98.8834 45.676 97.9174 46.74C96.9794 47.804 95.8314 48.336 94.4734 48.336ZM114.732 43.989C114.732 45.305 114.249 46.362 113.283 47.16C112.303 47.944 111.113 48.336 109.713 48.336C108.467 48.336 107.368 47.972 106.416 47.244C105.464 46.516 104.806 45.522 104.442 44.262L106.29 43.506C106.416 43.954 106.591 44.36 106.815 44.724C107.039 45.088 107.298 45.403 107.592 45.669C107.9 45.921 108.236 46.124 108.6 46.278C108.964 46.418 109.349 46.488 109.755 46.488C110.637 46.488 111.358 46.264 111.918 45.816C112.478 45.354 112.758 44.745 112.758 43.989C112.758 43.359 112.527 42.82 112.065 42.372C111.631 41.938 110.819 41.518 109.629 41.112C108.425 40.678 107.676 40.384 107.382 40.23C105.786 39.418 104.988 38.221 104.988 36.639C104.988 35.533 105.429 34.588 106.311 33.804C107.207 33.02 108.306 32.628 109.608 32.628C110.756 32.628 111.75 32.922 112.59 33.51C113.43 34.084 113.99 34.805 114.27 35.673L112.464 36.429C112.296 35.869 111.96 35.407 111.456 35.043C110.966 34.665 110.364 34.476 109.65 34.476C108.894 34.476 108.257 34.686 107.739 35.106C107.221 35.498 106.962 36.009 106.962 36.639C106.962 37.157 107.165 37.605 107.571 37.983C108.019 38.361 108.992 38.809 110.49 39.327C112.016 39.845 113.101 40.482 113.745 41.238C114.403 41.98 114.732 42.897 114.732 43.989ZM120.263 48.168C119.423 48.168 118.723 47.909 118.163 47.391C117.617 46.873 117.337 46.152 117.323 45.228V39.474H115.517V37.71H117.323V34.56H119.255V37.71H121.775V39.474H119.255V44.598C119.255 45.284 119.388 45.753 119.654 46.005C119.92 46.243 120.221 46.362 120.557 46.362C120.711 46.362 120.858 46.348 120.998 46.32C121.152 46.278 121.292 46.229 121.418 46.173L122.027 47.895C121.523 48.077 120.935 48.168 120.263 48.168ZM122.922 42.855C122.922 41.273 123.419 39.964 124.413 38.928C125.421 37.892 126.688 37.374 128.214 37.374C129.74 37.374 131 37.892 131.994 38.928C133.002 39.964 133.506 41.273 133.506 42.855C133.506 44.451 133.002 45.76 131.994 46.782C131 47.818 129.74 48.336 128.214 48.336C126.688 48.336 125.421 47.818 124.413 46.782C123.419 45.746 122.922 44.437 122.922 42.855ZM124.854 42.855C124.854 43.961 125.176 44.857 125.82 45.543C126.464 46.229 127.262 46.572 128.214 46.572C129.166 46.572 129.964 46.229 130.608 45.543C131.252 44.857 131.574 43.961 131.574 42.855C131.574 41.763 131.252 40.874 130.608 40.188C129.95 39.488 129.152 39.138 128.214 39.138C127.276 39.138 126.478 39.488 125.82 40.188C125.176 40.874 124.854 41.763 124.854 42.855ZM136.988 48H135.056V37.71H136.904V39.39H136.988C137.184 38.844 137.583 38.382 138.185 38.004C138.801 37.612 139.403 37.416 139.991 37.416C140.551 37.416 141.027 37.5 141.419 37.668L140.831 39.537C140.593 39.439 140.215 39.39 139.697 39.39C138.969 39.39 138.332 39.684 137.786 40.272C137.254 40.86 136.988 41.546 136.988 42.33V48ZM146.669 48.336C145.157 48.336 143.911 47.818 142.931 46.782C141.951 45.746 141.461 44.437 141.461 42.855C141.461 41.287 141.937 39.985 142.889 38.949C143.841 37.899 145.059 37.374 146.543 37.374C148.069 37.374 149.28 37.871 150.176 38.865C151.086 39.845 151.541 41.224 151.541 43.002L151.52 43.212H143.435C143.463 44.22 143.799 45.032 144.443 45.648C145.087 46.264 145.857 46.572 146.753 46.572C147.985 46.572 148.951 45.956 149.651 44.724L151.373 45.564C150.911 46.432 150.267 47.111 149.441 47.601C148.629 48.091 147.705 48.336 146.669 48.336ZM143.582 41.616H149.483C149.427 40.902 149.133 40.314 148.601 39.852C148.083 39.376 147.383 39.138 146.501 39.138C145.773 39.138 145.143 39.362 144.611 39.81C144.093 40.258 143.75 40.86 143.582 41.616Z" fill="white"/>
</svg>
