<svg width="197" height="65" viewBox="0 0 197 65" fill="none" xmlns="http://www.w3.org/2000/svg">
<rect x="0.5" y="1" width="196" height="63" rx="6.5" fill="black"/>
<rect x="0.5" y="1" width="196" height="63" rx="6.5" stroke="#878787"/>
<g clip-path="url(#clip0_626_3317)">
<path d="M59.0826 32.5001C59.0826 33.5626 58.4876 34.4976 57.6234 34.9793L50.2568 39.0734L44.0234 32.5001L50.2568 25.9268L57.6234 30.0209C58.4876 30.5026 59.0826 31.4376 59.0826 32.5001Z" fill="#FFC107"/>
<path d="M44.0216 32.5001L28.7216 48.6359C28.2116 48.1259 27.9141 47.4318 27.9141 46.6668V18.3334C27.9141 17.5684 28.2116 16.8743 28.7216 16.3643L44.0216 32.5001Z" fill="#03A9F4"/>
<path d="M44.0227 32.5L50.256 39.0733L32.1227 49.1458C31.7118 49.3725 31.2443 49.5 30.7485 49.5C29.9552 49.5 29.2327 49.1742 28.7227 48.6358L44.0227 32.5Z" fill="#F44336"/>
<path d="M50.256 25.9267L44.0227 32.5L28.7227 16.3642C29.2327 15.8258 29.9552 15.5 30.7485 15.5C31.2443 15.5 31.7118 15.6275 32.1227 15.8542L50.256 25.9267Z" fill="#4CAF50"/>
</g>
<path d="M77.632 20.552C77.632 21.752 77.276 22.708 76.564 23.42C75.764 24.268 74.712 24.692 73.408 24.692C72.16 24.692 71.104 24.26 70.24 23.396C69.376 22.532 68.944 21.468 68.944 20.204C68.944 18.94 69.376 17.876 70.24 17.012C71.104 16.148 72.16 15.716 73.408 15.716C74.04 15.716 74.636 15.828 75.196 16.052C75.756 16.276 76.216 16.592 76.576 17L75.784 17.792C75.52 17.472 75.176 17.224 74.752 17.048C74.336 16.864 73.888 16.772 73.408 16.772C72.472 16.772 71.68 17.096 71.032 17.744C70.392 18.4 70.072 19.22 70.072 20.204C70.072 21.188 70.392 22.008 71.032 22.664C71.68 23.312 72.472 23.636 73.408 23.636C74.264 23.636 74.976 23.396 75.544 22.916C76.112 22.436 76.44 21.776 76.528 20.936H73.408V19.904H77.572C77.612 20.128 77.632 20.344 77.632 20.552ZM83.9894 15.908V16.964H80.0774V19.688H83.6054V20.72H80.0774V23.444H83.9894V24.5H78.9734V15.908H83.9894ZM88.4053 16.964V24.5H87.3013V16.964H84.9013V15.908H90.8053V16.964H88.4053ZM95.6985 24.5H94.5945V15.908H95.6985V24.5ZM100.358 16.964V24.5H99.2544V16.964H96.8544V15.908H102.758V16.964H100.358ZM114.725 20.204C114.725 21.476 114.301 22.54 113.453 23.396C112.597 24.26 111.549 24.692 110.309 24.692C109.061 24.692 108.013 24.26 107.165 23.396C106.317 22.54 105.893 21.476 105.893 20.204C105.893 18.932 106.317 17.868 107.165 17.012C108.013 16.148 109.061 15.716 110.309 15.716C111.557 15.716 112.605 16.152 113.453 17.024C114.301 17.88 114.725 18.94 114.725 20.204ZM107.021 20.204C107.021 21.196 107.333 22.016 107.957 22.664C108.589 23.312 109.373 23.636 110.309 23.636C111.245 23.636 112.025 23.312 112.649 22.664C113.281 22.024 113.597 21.204 113.597 20.204C113.597 19.204 113.281 18.384 112.649 17.744C112.025 17.096 111.245 16.772 110.309 16.772C109.373 16.772 108.589 17.096 107.957 17.744C107.333 18.392 107.021 19.212 107.021 20.204ZM117.132 24.5H116.028V15.908H117.372L121.548 22.592H121.596L121.548 20.936V15.908H122.652V24.5H121.5L117.132 17.492H117.084L117.132 19.148V24.5Z" fill="#E2E2E2"/>
<path d="M83.72 40.92C83.72 42.92 83.1267 44.5133 81.94 45.7C80.6067 47.1133 78.8533 47.82 76.68 47.82C74.6 47.82 72.84 47.1 71.4 45.66C69.96 44.22 69.24 42.4467 69.24 40.34C69.24 38.2333 69.96 36.46 71.4 35.02C72.84 33.58 74.6 32.86 76.68 32.86C77.7333 32.86 78.7267 33.0467 79.66 33.42C80.5933 33.7933 81.36 34.32 81.96 35L80.64 36.32C80.2 35.7867 79.6267 35.3733 78.92 35.08C78.2267 34.7733 77.48 34.62 76.68 34.62C75.12 34.62 73.8 35.16 72.72 36.24C71.6533 37.3333 71.12 38.7 71.12 40.34C71.12 41.98 71.6533 43.3467 72.72 44.44C73.8 45.52 75.12 46.06 76.68 46.06C78.1067 46.06 79.2933 45.66 80.24 44.86C81.1867 44.06 81.7333 42.96 81.88 41.56H76.68V39.84H83.62C83.6867 40.2133 83.72 40.5733 83.72 40.92ZM84.978 42.6C84.978 41.0933 85.4513 39.8467 86.398 38.86C87.358 37.8733 88.5646 37.38 90.018 37.38C91.4713 37.38 92.6713 37.8733 93.618 38.86C94.578 39.8467 95.058 41.0933 95.058 42.6C95.058 44.12 94.578 45.3667 93.618 46.34C92.6713 47.3267 91.4713 47.82 90.018 47.82C88.5646 47.82 87.358 47.3267 86.398 46.34C85.4513 45.3533 84.978 44.1067 84.978 42.6ZM86.818 42.6C86.818 43.6533 87.1246 44.5067 87.738 45.16C88.3513 45.8133 89.1113 46.14 90.018 46.14C90.9246 46.14 91.6846 45.8133 92.298 45.16C92.9113 44.5067 93.218 43.6533 93.218 42.6C93.218 41.56 92.9113 40.7133 92.298 40.06C91.6713 39.3933 90.9113 39.06 90.018 39.06C89.1246 39.06 88.3646 39.3933 87.738 40.06C87.1246 40.7133 86.818 41.56 86.818 42.6ZM96.1694 42.6C96.1694 41.0933 96.6427 39.8467 97.5894 38.86C98.5494 37.8733 99.756 37.38 101.209 37.38C102.663 37.38 103.863 37.8733 104.809 38.86C105.769 39.8467 106.249 41.0933 106.249 42.6C106.249 44.12 105.769 45.3667 104.809 46.34C103.863 47.3267 102.663 47.82 101.209 47.82C99.756 47.82 98.5494 47.3267 97.5894 46.34C96.6427 45.3533 96.1694 44.1067 96.1694 42.6ZM98.0094 42.6C98.0094 43.6533 98.316 44.5067 98.9294 45.16C99.5427 45.8133 100.303 46.14 101.209 46.14C102.116 46.14 102.876 45.8133 103.489 45.16C104.103 44.5067 104.409 43.6533 104.409 42.6C104.409 41.56 104.103 40.7133 103.489 40.06C102.863 39.3933 102.103 39.06 101.209 39.06C100.316 39.06 99.556 39.3933 98.9294 40.06C98.316 40.7133 98.0094 41.56 98.0094 42.6ZM112.321 46.14C113.227 46.14 113.967 45.8133 114.541 45.16C115.141 44.5067 115.441 43.6533 115.441 42.6C115.441 41.5733 115.141 40.7267 114.541 40.06C113.954 39.3933 113.214 39.06 112.321 39.06C111.441 39.06 110.701 39.3933 110.101 40.06C109.501 40.7267 109.201 41.5733 109.201 42.6C109.201 43.64 109.501 44.4867 110.101 45.14C110.701 45.8067 111.441 46.14 112.321 46.14ZM112.261 52.14C111.714 52.14 111.201 52.0667 110.721 51.92C110.241 51.7867 109.801 51.5933 109.401 51.34C109.014 51.0867 108.681 50.7867 108.401 50.44C108.121 50.0933 107.907 49.7067 107.761 49.28L109.501 48.56C109.701 49.1333 110.047 49.5933 110.541 49.94C111.034 50.2867 111.607 50.46 112.261 50.46C113.261 50.46 114.041 50.16 114.601 49.56C115.161 48.96 115.441 48.1333 115.441 47.08V46.14H115.361C115.014 46.66 114.541 47.0733 113.941 47.38C113.354 47.6733 112.714 47.82 112.021 47.82C110.741 47.82 109.641 47.32 108.721 46.32C107.814 45.2933 107.361 44.0533 107.361 42.6C107.361 41.1467 107.814 39.9133 108.721 38.9C109.641 37.8867 110.741 37.38 112.021 37.38C112.714 37.38 113.354 37.5333 113.941 37.84C114.541 38.1333 115.014 38.54 115.361 39.06H115.441V37.7H117.201V47.08C117.201 48.6533 116.754 49.8867 115.861 50.78C114.954 51.6867 113.754 52.14 112.261 52.14ZM121.284 33.18V47.5H119.444V33.18H121.284ZM127.829 47.82C126.389 47.82 125.202 47.3267 124.269 46.34C123.335 45.3533 122.869 44.1067 122.869 42.6C122.869 41.1067 123.322 39.8667 124.229 38.88C125.135 37.88 126.295 37.38 127.709 37.38C129.162 37.38 130.315 37.8533 131.169 38.8C132.035 39.7333 132.469 41.0467 132.469 42.74L132.449 42.94H124.749C124.775 43.9 125.095 44.6733 125.709 45.26C126.322 45.8467 127.055 46.14 127.909 46.14C129.082 46.14 130.002 45.5533 130.669 44.38L132.309 45.18C131.869 46.0067 131.255 46.6533 130.469 47.12C129.695 47.5867 128.815 47.82 127.829 47.82ZM124.889 41.42H130.509C130.455 40.74 130.175 40.18 129.669 39.74C129.175 39.2867 128.509 39.06 127.669 39.06C126.975 39.06 126.375 39.2733 125.869 39.7C125.375 40.1267 125.049 40.7 124.889 41.42ZM140.706 41.7V47.5H138.866V33.18H143.746C144.986 33.18 146.039 33.5933 146.906 34.42C147.786 35.2467 148.226 36.2533 148.226 37.44C148.226 38.6533 147.786 39.6667 146.906 40.48C146.052 41.2933 144.999 41.7 143.746 41.7H140.706ZM140.706 34.94V39.94H143.786C144.519 39.94 145.126 39.6933 145.606 39.2C146.099 38.7067 146.346 38.12 146.346 37.44C146.346 36.7733 146.099 36.1933 145.606 35.7C145.126 35.1933 144.519 34.94 143.786 34.94H140.706ZM151.773 33.18V47.5H149.933V33.18H151.773ZM155.257 44.5C155.257 44.98 155.457 45.38 155.857 45.7C156.27 46.02 156.75 46.18 157.297 46.18C158.07 46.18 158.757 45.8933 159.357 45.32C159.97 44.7467 160.277 44.0733 160.277 43.3C159.704 42.8467 158.904 42.62 157.877 42.62C157.13 42.62 156.504 42.8 155.997 43.16C155.504 43.52 155.257 43.9667 155.257 44.5ZM157.637 37.38C158.997 37.38 160.07 37.7467 160.857 38.48C161.644 39.2 162.037 40.1933 162.037 41.46V47.5H160.277V46.14H160.197C159.437 47.26 158.424 47.82 157.157 47.82C156.077 47.82 155.17 47.5 154.437 46.86C153.717 46.22 153.357 45.42 153.357 44.46C153.357 43.4467 153.737 42.64 154.497 42.04C155.27 41.44 156.297 41.14 157.577 41.14C158.67 41.14 159.57 41.34 160.277 41.74V41.32C160.277 40.68 160.024 40.14 159.517 39.7C159.01 39.2467 158.417 39.02 157.737 39.02C156.71 39.02 155.897 39.4533 155.297 40.32L153.677 39.3C154.57 38.02 155.89 37.38 157.637 37.38ZM172.677 37.7L166.537 51.82H164.637L166.917 46.88L162.877 37.7H164.877L167.797 44.74H167.837L170.677 37.7H172.677Z" fill="white"/>
<defs>
<clipPath id="clip0_626_3317">
<rect width="34" height="34" fill="white" transform="translate(26.5 15.5)"/>
</clipPath>
</defs>
</svg>
