<svg width="199" height="46" viewBox="0 0 199 46" fill="none" xmlns="http://www.w3.org/2000/svg">
<rect y="-0.0078125" width="45.4338" height="46.0163" rx="8.15478" fill="url(#paint0_linear_759_6507)"/>
<g clip-path="url(#clip0_759_6507)">
<path d="M11.2832 35.2322C11.6715 34.5526 12.5647 33.1352 13.0307 32.9022C13.495 32.6701 17.2907 33.1781 20.5817 32.9513C22.1546 32.8429 23.6349 32.2102 24.8563 31.2132C25.7383 30.4932 26.7058 29.5931 27.49 28.6151C27.9709 28.0155 28.0404 27.0953 27.2733 27.1431C26.542 27.1886 25.2853 27.6124 23.2241 28.8248C22.1562 29.2131 19.3797 29.815 16.8168 29.1161C16.1187 28.9415 15.9697 28.469 19.3309 27.0215C20.1097 26.686 20.5469 25.8187 19.7293 25.5936C18.7554 25.3255 16.8355 25.4138 13.3219 26.4949C5.7496 28.8248 7.78829 33.1935 11.2832 35.2322Z" fill="white"/>
<path d="M32.2529 13.3893C31.7869 12.6903 26.6222 13.098 24.0981 13.3893L25.8453 17.4664C27.0772 17.22 28.0378 17.1799 28.727 17.2255C29.5189 17.2779 30.1599 17.8473 30.3305 18.6225C30.7635 20.5904 29.1713 20.8361 28.1752 20.67C27.8925 20.5852 27.4879 20.4806 27.0103 20.3807C26.4129 20.2558 25.7014 20.1382 24.9716 20.0758C24.2816 20.0169 23.5751 20.0073 22.9332 20.0876C21.866 20.221 21.3487 20.7209 21.1854 21.2237C20.9922 21.8186 21.2947 22.4175 21.7682 22.4175C22.5519 22.4175 24.7417 22.4175 26.866 23.4685C27.11 23.5892 27.353 23.7237 27.593 23.8737C27.7802 23.9907 27.975 24.1002 28.1752 24.2023C30.4677 25.3711 33.4881 25.5744 34.2916 25.0387C34.9906 24.5727 37.8836 24.6504 39.2427 24.7474C39.534 22.7087 39.8835 18.5731 38.9515 18.3401C37.7865 18.0489 32.8354 14.263 32.2529 13.3893Z" fill="white"/>
<path d="M21.1854 21.2237C21.3487 20.7209 21.866 20.221 22.9332 20.0876C23.5751 20.0073 24.2816 20.0169 24.9716 20.0758C25.2628 15.1364 18.273 17.1751 21.1854 21.2237Z" fill="#589B63"/>
<path d="M15.9431 13.6802L16.9841 16.0102C17.5108 15.6556 18.506 14.4704 18.273 12.5659L15.9431 13.6802Z" fill="#589B63"/>
<path d="M23.6864 12.5659L22.6416 10.4766L20.6029 11.4516C21.5349 12.6976 23.0469 12.7136 23.6864 12.5659Z" fill="#589B63"/>
<path d="M21.4085 25.9124L22.0592 27.3686L24.0979 26.3132C23.1659 25.7018 21.9166 25.7913 21.4085 25.9124Z" fill="#589B63"/>
<path d="M28.1752 24.2023C27.975 24.1002 27.7802 23.9907 27.593 23.8737C27.353 23.7237 27.11 23.5892 26.866 23.4685C26.817 23.7393 26.7773 24.3858 27.0103 24.8054L28.1752 24.2023Z" fill="#589B63"/>
<path d="M25.8453 17.4664L24.0981 13.3893L23.6864 12.5659C23.0469 12.7136 21.5349 12.6976 20.6029 11.4516L18.273 12.5659C18.506 14.4704 17.5108 15.6556 16.9841 16.0102L21.4085 25.9124C21.9166 25.7913 23.1659 25.7018 24.0979 26.3132L27.0103 24.8054C26.7773 24.3858 26.817 23.7393 26.866 23.4685C24.7417 22.4175 22.5519 22.4175 21.7682 22.4175C21.2947 22.4175 20.9922 21.8186 21.1854 21.2237C18.273 17.1751 25.2628 15.1364 24.9716 20.0758C25.7014 20.1382 26.4129 20.2558 27.0103 20.3807L25.8453 17.4664Z" fill="#B6D48A"/>
</g>
<rect x="6.22422" y="6.21641" width="32.9841" height="33.5666" rx="16.4921" stroke="#CBCBCB" stroke-width="0.8"/>
<path d="M71.0841 31.5301C65.7834 31.5301 62.2245 28.1036 62.2245 23.0491C62.2245 17.9946 65.7834 14.5681 71.0841 14.5681C74.8323 14.5681 78.6753 16.2151 79.2811 21.3643H74.7377C74.2266 19.528 72.8825 18.6761 71.0841 18.6761C68.7556 18.6761 66.9382 20.4177 66.9382 23.0491C66.9382 25.6615 68.7556 27.4221 71.0841 27.4221C72.8825 27.4221 74.2266 26.5702 74.7377 24.6961H79.2811C78.6753 29.8831 74.8702 31.5301 71.0841 31.5301ZM96.5246 31H91.8487L89.5392 26.6838H85.1851V31H80.4335V15.0982H89.2741C93.6471 15.0982 96.0513 17.0291 96.0513 21.0424C96.0513 23.2195 95.048 24.7718 93.6093 25.6994L96.5246 31ZM85.1851 19.0547V23.1059H88.9712C90.4857 23.1059 91.2997 22.3865 91.2997 21.0803C91.2997 19.7741 90.4857 19.0547 88.9712 19.0547H85.1851ZM97.6708 31V15.0982H111.68V18.9222H102.422V21.44H111.339V24.6393H102.422V27.1571H111.68V31H97.6708ZM120.873 15.0982C127.234 15.0982 129.543 18.4868 129.543 23.0491C129.543 27.5925 127.234 31 120.873 31H113.111V15.0982H120.873ZM120.854 27.0056C123.258 27.0056 124.773 25.7562 124.773 23.0491C124.773 20.3231 123.258 19.0926 120.854 19.0926H117.882V27.0056H120.854ZM130.77 31V15.0982H136.771L139.819 24.8664H140.16L143.208 15.0982H149.228V31H144.684V23.1059H144.306L141.788 31H138.21L135.692 23.1059H135.294V31H130.77ZM163.728 31L162.933 28.7094H155.778L154.982 31H150.079L156.024 15.0982H162.687L168.65 31H163.728ZM157.008 25.1693H161.703L159.772 19.5658H158.939L157.008 25.1693ZM182.53 15.0982V19.0736H176.737V31H171.986V19.0736H166.193V15.0982H182.53ZM183.88 31V15.0982H197.888V18.9222H188.631V21.44H197.548V24.6393H188.631V27.1571H197.888V31H183.88Z" fill="#1C1C1C"/>
<defs>
<linearGradient id="paint0_linear_759_6507" x1="45.4338" y1="5.23455" x2="13.1059" y2="36.1062" gradientUnits="userSpaceOnUse">
<stop stop-color="#CE0061"/>
<stop offset="1" stop-color="#680031"/>
</linearGradient>
<clipPath id="clip0_759_6507">
<rect x="5.82422" y="5.81641" width="33.7841" height="34.3666" rx="16.892" fill="white"/>
</clipPath>
</defs>
</svg>
