<svg width="25" height="24" viewBox="0 0 25 24" fill="none" xmlns="http://www.w3.org/2000/svg">
<g id="GlobeSimple">
<path id="Vector" d="M12.6484 2.25C10.7201 2.25 8.83501 2.82183 7.23163 3.89317C5.62825 4.96451 4.37857 6.48726 3.64062 8.26884C2.90266 10.0504 2.70958 12.0108 3.08579 13.9021C3.46199 15.7934 4.39059 17.5307 5.75415 18.8943C7.11771 20.2579 8.855 21.1865 10.7463 21.5627C12.6376 21.9389 14.598 21.7458 16.3796 21.0078C18.1612 20.2699 19.6839 19.0202 20.7553 17.4168C21.8266 15.8134 22.3984 13.9284 22.3984 12C22.3955 9.41505 21.3673 6.93683 19.5394 5.109C17.7116 3.28116 15.2334 2.25298 12.6484 2.25ZM20.8628 11.25H17.1288C16.9609 7.82719 15.6428 5.40656 14.5619 3.975C16.2403 4.37804 17.7504 5.29628 18.8806 6.60095C20.0107 7.90562 20.7042 9.53129 20.8638 11.25H20.8628ZM9.67 12.75H15.6269C15.4103 16.6509 13.5428 19.0416 12.6484 19.9688C11.7531 19.0406 9.88657 16.65 9.67 12.75ZM9.67 11.25C9.88657 7.34906 11.7541 4.95844 12.6484 4.03125C13.5438 4.96219 15.4103 7.35281 15.6269 11.25H9.67ZM10.735 3.975C9.65407 5.40656 8.33594 7.82719 8.16813 11.25H4.43313C4.59269 9.53129 5.28616 7.90562 6.41632 6.60095C7.54647 5.29628 9.05662 4.37804 10.735 3.975ZM4.43313 12.75H8.16813C8.33875 16.1728 9.65407 18.5934 10.735 20.025C9.05662 19.622 7.54647 18.7037 6.41632 17.399C5.28616 16.0944 4.59269 14.4687 4.43313 12.75ZM14.5581 20.025C15.6391 18.5934 16.9544 16.1728 17.125 12.75H20.86C20.7007 14.4682 20.0078 16.0935 18.8783 17.3981C17.7489 18.7027 16.2396 19.6213 14.5619 20.025H14.5581Z" fill="#737373" fill-opacity="0.54"/>
</g>
</svg>
