<svg width="24" height="25" viewBox="0 0 24 25" fill="none" xmlns="http://www.w3.org/2000/svg">
<path d="M2.5 12.0156C2.5 7.53728 2.5 5.29811 3.89124 3.90686C5.28249 2.51562 7.52166 2.51562 12 2.51562C16.4783 2.51562 18.7175 2.51562 20.1088 3.90686C21.5 5.29811 21.5 7.53728 21.5 12.0156C21.5 16.4939 21.5 18.7331 20.1088 20.1244C18.7175 21.5156 16.4783 21.5156 12 21.5156C7.52166 21.5156 5.28249 21.5156 3.89124 20.1244C2.5 18.7331 2.5 16.4939 2.5 12.0156Z" stroke="white" stroke-width="1.5" stroke-linejoin="round"/>
<path d="M16.5 12.0156C16.5 14.5009 14.4853 16.5156 12 16.5156C9.51472 16.5156 7.5 14.5009 7.5 12.0156C7.5 9.53034 9.51472 7.51562 12 7.51562C14.4853 7.51562 16.5 9.53034 16.5 12.0156Z" stroke="white" stroke-width="1.5"/>
<path d="M17.509 6.51562H17.5" stroke="white" stroke-width="2" stroke-linecap="round" stroke-linejoin="round"/>
</svg>
