<svg width="21" height="21" viewBox="0 0 21 21" fill="none" xmlns="http://www.w3.org/2000/svg">
<rect width="21" height="21" rx="2.625" fill="#2F78D8"/>
<path d="M4.875 8.625H4.5C3.79289 8.625 3.43934 8.625 3.21967 8.84467C3 9.06435 3 9.4179 3 10.125V16.5C3 17.2071 3 17.5606 3.21967 17.7803C3.43934 18 3.79289 18 4.5 18H4.875C5.58211 18 5.93566 18 6.15533 17.7803C6.375 17.5606 6.375 17.2071 6.375 16.5V10.125C6.375 9.4179 6.375 9.06435 6.15533 8.84467C5.93566 8.625 5.58211 8.625 4.875 8.625Z" fill="white"/>
<path d="M6.375 4.68652C6.375 5.6185 5.61948 6.37402 4.6875 6.37402C3.75552 6.37402 3 5.6185 3 4.68652C3 3.75454 3.75552 2.99902 4.6875 2.99902C5.61948 2.99902 6.375 3.75454 6.375 4.68652Z" fill="white"/>
<path d="M10.7445 8.625H10.125C9.4179 8.625 9.06435 8.625 8.84467 8.84467C8.625 9.06435 8.625 9.4179 8.625 10.125V16.5C8.625 17.2071 8.625 17.5606 8.84467 17.7803C9.06435 18 9.4179 18 10.125 18H10.5C11.2071 18 11.5606 18 11.7803 17.7803C12 17.5606 12 17.2071 12 16.5L12.0001 13.8751C12.0001 12.6325 12.3961 11.6251 13.5659 11.6251C14.1508 11.6251 14.625 12.1288 14.625 12.7501V16.1251C14.625 16.8322 14.625 17.1857 14.8447 17.4054C15.0643 17.6251 15.4179 17.6251 16.125 17.6251H16.499C17.206 17.6251 17.5595 17.6251 17.7791 17.4055C17.9988 17.1859 17.9989 16.8324 17.999 16.1255L18.0001 12.0002C18.0001 10.1363 16.2273 8.62518 14.4726 8.62518C13.4737 8.62518 12.5825 9.11482 12.0001 9.8805C12 9.40792 12 9.17167 11.8974 8.99625C11.8324 8.88514 11.7398 8.79265 11.6288 8.72765C11.4533 8.625 11.2171 8.625 10.7445 8.625Z" fill="white"/>
</svg>
