<svg width="24" height="25" viewBox="0 0 24 25" fill="none" xmlns="http://www.w3.org/2000/svg">
<rect y="0.015625" width="24" height="24" rx="3" fill="white"/>
<path d="M5.57254 9.87305H5.14397C4.33585 9.87305 3.93179 9.87305 3.68074 10.1241C3.42969 10.3752 3.42969 10.7792 3.42969 11.5873V18.873C3.42969 19.6812 3.42969 20.0852 3.68074 20.3363C3.93179 20.5873 4.33585 20.5873 5.14397 20.5873H5.57254C6.38067 20.5873 6.78472 20.5873 7.03578 20.3363C7.28683 20.0852 7.28683 19.6812 7.28683 18.873V11.5873C7.28683 10.7792 7.28683 10.3752 7.03578 10.1241C6.78472 9.87305 6.38067 9.87305 5.57254 9.87305Z" fill="#A2195E"/>
<path d="M7.28683 5.37193C7.28683 6.43705 6.42338 7.3005 5.35826 7.3005C4.29314 7.3005 3.42969 6.43705 3.42969 5.37193C3.42969 4.30681 4.29314 3.44336 5.35826 3.44336C6.42338 3.44336 7.28683 4.30681 7.28683 5.37193Z" fill="#A2195E"/>
<path d="M12.2778 9.87305H11.5698C10.7616 9.87305 10.3576 9.87305 10.1065 10.1241C9.85547 10.3752 9.85547 10.7792 9.85547 11.5873V18.873C9.85547 19.6812 9.85547 20.0852 10.1065 20.3363C10.3576 20.5873 10.7616 20.5873 11.5698 20.5873H11.9983C12.8064 20.5873 13.2105 20.5873 13.4616 20.3363C13.7126 20.0852 13.7126 19.6812 13.7126 18.873L13.7127 15.8731C13.7127 14.453 14.1653 13.3017 15.5022 13.3017C16.1706 13.3017 16.7126 13.8774 16.7126 14.5874V18.4446C16.7126 19.2527 16.7126 19.6567 16.9637 19.9078C17.2146 20.1588 17.6188 20.1588 18.4269 20.1588H18.8544C19.6623 20.1588 20.0663 20.1588 20.3173 19.9079C20.5684 19.6569 20.5685 19.2529 20.5686 18.445L20.5698 13.7304C20.5698 11.6002 18.5438 9.87325 16.5384 9.87325C15.3968 9.87325 14.3784 10.4328 13.7127 11.3079C13.7126 10.7678 13.7126 10.4978 13.5954 10.2973C13.521 10.1704 13.4153 10.0646 13.2883 9.99036C13.0878 9.87305 12.8178 9.87305 12.2778 9.87305Z" fill="#A2195E"/>
</svg>
