<svg width="166" height="51" viewBox="0 0 166 51" fill="none" xmlns="http://www.w3.org/2000/svg">
<rect width="74" height="51.0097" rx="25.5049" fill="#FEE3F1"/>
<path d="M50.8206 18.2458L41.6331 9.05828C41.4487 8.87362 41.1985 8.76976 40.9375 8.76953H25.1875C24.5783 8.76953 23.9941 9.01152 23.5634 9.44227C23.1326 9.87302 22.8906 10.4572 22.8906 11.0664V39.9414C22.8906 40.5506 23.1326 41.1348 23.5634 41.5655C23.9941 41.9963 24.5783 42.2383 25.1875 42.2383H48.8125C49.4217 42.2383 50.0059 41.9963 50.4366 41.5655C50.8674 41.1348 51.1094 40.5506 51.1094 39.9414V18.9414C51.1091 18.6804 51.0053 18.4302 50.8206 18.2458ZM41.9219 12.1295L47.7494 17.957H41.9219V12.1295ZM48.8125 40.2695H25.1875C25.1005 40.2695 25.017 40.235 24.9555 40.1734C24.8939 40.1119 24.8594 40.0284 24.8594 39.9414V11.0664C24.8594 10.9794 24.8939 10.8959 24.9555 10.8344C25.017 10.7729 25.1005 10.7383 25.1875 10.7383H39.9531V18.9414C39.9531 19.2025 40.0568 19.4529 40.2414 19.6375C40.426 19.8221 40.6764 19.9258 40.9375 19.9258H49.1406V39.9414C49.1406 40.0284 49.1061 40.1119 49.0445 40.1734C48.983 40.235 48.8995 40.2695 48.8125 40.2695ZM43.2344 26.8164C43.2344 27.0775 43.1307 27.3279 42.9461 27.5125C42.7615 27.6971 42.5111 27.8008 42.25 27.8008H31.75C31.4889 27.8008 31.2385 27.6971 31.0539 27.5125C30.8693 27.3279 30.7656 27.0775 30.7656 26.8164C30.7656 26.5553 30.8693 26.305 31.0539 26.1203C31.2385 25.9357 31.4889 25.832 31.75 25.832H42.25C42.5111 25.832 42.7615 25.9357 42.9461 26.1203C43.1307 26.305 43.2344 26.5553 43.2344 26.8164ZM43.2344 32.0664C43.2344 32.3275 43.1307 32.5779 42.9461 32.7625C42.7615 32.9471 42.5111 33.0508 42.25 33.0508H31.75C31.4889 33.0508 31.2385 32.9471 31.0539 32.7625C30.8693 32.5779 30.7656 32.3275 30.7656 32.0664C30.7656 31.8053 30.8693 31.555 31.0539 31.3703C31.2385 31.1857 31.4889 31.082 31.75 31.082H42.25C42.5111 31.082 42.7615 31.1857 42.9461 31.3703C43.1307 31.555 43.2344 31.8053 43.2344 32.0664Z" fill="#A2195E"/>
<circle cx="73.5" cy="24.5098" r="7.5" fill="#FEE3F1"/>
<circle cx="95.5" cy="24.5098" r="6.5" fill="#FEE3F1"/>
<circle cx="115.5" cy="24.5098" r="5.5" fill="#FEE3F1"/>
<circle cx="133.5" cy="24.5098" r="4.5" fill="#FEE3F1"/>
<circle cx="149.5" cy="24.5098" r="3.5" fill="#FEE3F1"/>
<circle cx="163.5" cy="24.5098" r="2.5" fill="#FEE3F1"/>
</svg>
