<svg width="66" height="53" viewBox="0 0 66 53" fill="none" xmlns="http://www.w3.org/2000/svg">
<path d="M4.81425 0.0988464C3.06979 0.215242 2.03053 0.564426 1.5604 1.20766C0.842815 2.17558 0.669606 3.48655 0.780955 7.13768C0.849001 9.53296 0.898489 9.90665 1.26965 10.6602C1.60988 11.3585 2.69244 12.21 4.50495 13.2147C4.93178 13.4475 5.59369 13.8151 5.97104 14.0234C6.35457 14.2378 6.73811 14.4889 6.81853 14.587C7.08453 14.8933 7.11546 15.2486 7.09071 17.3375C7.05978 19.402 7.03504 19.5981 6.74429 19.9166C6.58346 20.0881 6.57108 20.0943 6.44118 20.0024C6.36695 19.9472 6.2556 19.7635 6.19374 19.5858C6.10713 19.3101 6.08857 18.9303 6.06383 16.8597L6.04527 14.4583H3.41621H0.793327V17.5703C0.793327 21.2827 0.855187 21.926 1.27584 22.7775C1.49853 23.2369 2.16044 23.8434 2.62439 24.0088C3.52755 24.3457 5.09881 24.4805 7.41238 24.4193C9.78164 24.358 10.6539 24.1497 11.3838 23.4758C11.7364 23.145 11.9962 22.7223 12.1633 22.1771C12.4045 21.3869 12.4354 20.7988 12.4107 17.0925C12.386 13.7293 12.3798 13.5516 12.2561 13.0983C12.1818 12.841 12.0519 12.498 11.9715 12.3326C11.5447 11.5055 10.4188 10.6479 8.52587 9.71062C7.07215 8.99387 6.57727 8.63243 6.26797 8.08109L6.08239 7.75028V6.46381C6.08239 5.41626 6.10095 5.11608 6.18755 4.83428C6.36076 4.27681 6.62676 4.15429 6.82471 4.54023C7.04122 4.95068 7.10308 5.45301 7.10308 6.93552V8.39352H9.76926H12.4354L12.4045 5.77157C12.3798 3.74385 12.355 3.05773 12.2808 2.72692C11.9282 1.10352 11.2044 0.441906 9.51564 0.184612C9.07024 0.117226 5.50709 0.0559654 4.81425 0.0988464Z" fill="#7F7F7F"/>
<path d="M30.1208 0.367277C27.6402 0.563311 26.7494 1.40258 26.5267 3.76723C26.4896 4.19606 26.4648 8.10448 26.4648 14.4694V24.5039H29.1248H31.7848L31.7972 22.1883L31.8158 19.8787L32.2364 19.8604C32.4962 19.8481 32.6942 19.8726 32.7499 19.9155C32.8241 19.9706 32.8365 20.3749 32.8365 22.2434V24.5039L35.4841 24.4917L38.1255 24.4733L38.1441 15.3148C38.1503 9.77076 38.1379 5.62343 38.0946 4.80866C38.008 2.88508 37.8038 2.10095 37.2162 1.43933C36.7151 0.875738 36.1645 0.612318 35.1253 0.453041C34.4077 0.342773 31.1539 0.287638 30.1208 0.367277ZM32.4591 4.74128C32.5519 4.79028 32.6756 4.93731 32.7313 5.06596C32.8303 5.28037 32.8365 5.70306 32.8241 10.414L32.8055 15.5292H32.3106H31.8158L31.7663 14.5797C31.7415 14.059 31.7292 11.725 31.7353 9.4032C31.7539 5.36001 31.7601 5.1701 31.8714 4.98019C31.9704 4.82704 32.1374 4.69227 32.2673 4.66164C32.2797 4.65551 32.3601 4.69227 32.4591 4.74128Z" fill="#7F7F7F"/>
<path d="M13.6928 0.563311C13.6742 0.64295 13.668 6.05225 13.6742 12.5887L13.6928 24.4733L16.3033 24.4917L18.92 24.5039L18.9323 18.3043L18.9509 12.0987L19.4025 12.0803C19.687 12.068 19.8912 12.0925 19.9468 12.1354C20.0211 12.1967 20.0334 13.1401 20.0334 18.3534V24.5039H22.6934H25.3534V12.4662V0.428537H22.6934H20.0334L20.0211 4.08579L20.0025 7.74916L19.5509 7.76754C19.2664 7.77979 19.0622 7.75529 19.0066 7.71241C18.9323 7.65115 18.92 7.06305 18.92 4.03678V0.428537H16.3218H13.7237L13.6928 0.563311Z" fill="#7F7F7F"/>
<path d="M39.3945 12.4662V24.5039H42.0545H44.7145L44.7269 19.1252L44.7455 13.7527L45.0733 13.7588C45.2527 13.7649 45.4383 13.8017 45.4878 13.8446C45.7167 14.0345 45.729 14.2366 45.7476 19.4315L45.7723 24.5039H48.4323H51.0861V19.6766C51.0861 16.9137 51.0552 14.6042 51.0243 14.2734C50.9562 13.624 50.7768 12.9134 50.5913 12.5581C50.4366 12.2641 49.8489 11.627 49.5644 11.4554C49.3231 11.3023 49.2984 11.2349 49.4778 11.1798C49.5458 11.1552 49.7685 10.9898 49.9665 10.8122C50.4304 10.3834 50.7397 9.78914 50.9067 9.005C51.0676 8.23925 51.1356 5.76433 51.0305 4.23894C50.9191 2.60328 50.6902 1.91717 50.0716 1.36582C49.6695 1.01051 49.286 0.820604 48.655 0.67358C47.7457 0.465294 46.9662 0.428537 43.1309 0.428537H39.3945V12.4662ZM45.4197 4.78416C45.7043 4.91281 45.729 5.07208 45.7538 6.70161C45.7785 8.50267 45.7476 8.68032 45.3269 8.84573C45.0362 8.96212 44.8877 8.96825 44.7888 8.87023C44.7021 8.78447 44.6774 4.77191 44.764 4.69227C44.8197 4.63713 45.2094 4.69227 45.4197 4.78416Z" fill="#7F7F7F"/>
<path d="M52.3828 12.4662V24.5039H55.0119H57.6409V19.3764C57.6409 16.5584 57.6657 14.2734 57.6904 14.3102C57.7214 14.3408 57.8327 15.0943 57.9441 15.9887C58.0554 16.8831 58.2101 17.9858 58.2905 18.4391C59.0019 22.5803 59.3297 24.4181 59.3545 24.4549C59.3668 24.4855 60.5484 24.5039 61.9774 24.5039C64.2043 24.5039 64.5693 24.4917 64.5693 24.412C64.5693 24.363 63.8579 21.4348 62.9919 17.9062C62.1258 14.3775 61.3649 11.2778 61.3031 11.0143L61.1855 10.5488L61.3587 9.97292C61.4515 9.66049 61.8969 8.14736 62.3423 6.61585C62.7939 5.08433 63.363 3.124 63.6167 2.26635C63.8703 1.4087 64.0744 0.649075 64.0744 0.569437V0.428537H61.4825H58.8905L58.7854 0.992134C58.7297 1.30456 58.5503 2.23572 58.3833 3.06274C58.2162 3.88976 58.0059 5.15785 57.9193 5.88072C57.8265 6.60359 57.7275 7.22232 57.6966 7.25295C57.6657 7.28971 57.6409 5.90522 57.6409 3.87138V0.428537H55.0119H52.3828V12.4662Z" fill="#7F7F7F"/>
<path d="M19.8862 25.8582C19.5522 25.8888 18.9954 25.9684 18.6552 26.0419C16.8427 26.4034 16.0323 27.1691 15.6302 28.8905L15.4941 29.497L15.4756 41.1549L15.457 52.8066H18.9521H22.4473L22.4596 50.2153L22.4782 47.6301L23.1215 47.6118C23.536 47.5995 23.7896 47.6179 23.8453 47.6669C23.9195 47.722 23.9319 48.1753 23.9319 50.2705V52.8066H27.427H30.9221V41.9452C30.9221 34.9737 30.8974 30.7896 30.8541 30.2444C30.786 29.3071 30.5819 28.3943 30.3221 27.8797C30.0684 27.3652 29.3818 26.6913 28.856 26.434C27.7982 25.9255 27.0868 25.8398 23.4679 25.8214C21.8348 25.8091 20.2265 25.8275 19.8862 25.8582ZM23.4989 30.7222C23.5979 30.7774 23.7339 30.906 23.7896 31.0163C23.8948 31.2001 23.901 31.5799 23.901 36.9708V42.7293L23.2576 42.7477C22.8803 42.7599 22.5895 42.7415 22.54 42.6987C22.4782 42.6497 22.4534 41.4612 22.4163 37.1975C22.3916 34.208 22.3916 31.635 22.4163 31.4696C22.5153 30.808 23.0102 30.4711 23.4989 30.7222Z" fill="#7F7F7F"/>
<path d="M0.855469 28.2412V30.5691H2.38961C3.50309 30.5691 3.9423 30.5875 3.99797 30.6426C4.05365 30.6977 4.07221 33.2523 4.07221 41.7614V52.8066H7.59825H11.1243L11.1367 41.7062L11.1552 30.5997L12.7512 30.5813L14.341 30.5691V28.2412V25.9133H7.59825H0.855469V28.2412Z" fill="#7F7F7F"/>
<path d="M32.1562 39.36V52.8066H35.1255H38.0948V46.8828C38.0948 43.446 38.1196 40.9834 38.1505 41.0201C38.1814 41.0508 38.2804 41.596 38.367 42.2392C38.6516 44.2608 38.8434 45.3329 39.0908 46.4049C39.2269 46.9746 39.6042 48.6287 39.9197 50.0683C40.2414 51.5079 40.5198 52.7147 40.5383 52.7515C40.5631 52.7821 41.9611 52.8066 44.1324 52.8066H47.6832V39.36V25.9133H44.5902H41.4972V31.972C41.4972 35.3106 41.4724 38.049 41.4477 38.0674C41.4167 38.0857 41.3425 37.7182 41.2868 37.2587C41.0394 35.3964 40.7487 33.724 40.4765 32.5601C40.2043 31.3838 39.0227 26.0174 39.0227 25.95C39.0227 25.9255 37.4762 25.9133 35.5895 25.9133H32.1562V39.36Z" fill="#7F7F7F"/>
<path d="M49.043 39.36V52.8066H52.5381H56.0332V46.8215C56.0332 43.5318 56.0579 40.8608 56.0827 40.8976C56.1136 40.9282 56.2683 41.8594 56.4353 42.9743C56.5961 44.0831 56.9054 45.8658 57.1281 46.9256C57.7343 49.8845 58.322 52.7638 58.322 52.7883C58.322 52.8005 59.8809 52.8066 61.7862 52.8066C64.6132 52.8066 65.2504 52.7944 65.2504 52.727C65.2504 52.6412 65.1761 52.3717 64.904 51.465L64.7493 50.9566L64.2421 50.9688C63.4502 50.9995 63.2709 50.9811 63.2275 50.8708C63.209 50.8157 63.2585 50.7054 63.3636 50.6013C63.4688 50.491 63.5616 50.295 63.6173 50.0683C63.7657 49.4373 63.8585 49.4863 62.578 49.5047C61.4336 49.517 61.1676 49.4802 61.1676 49.2903C61.1676 49.18 62.0708 48.402 62.2563 48.3591C62.3368 48.3408 62.4048 48.2856 62.4048 48.2489C62.4048 48.1753 61.8666 48.0651 60.7098 47.8997C60.4809 47.8629 60.2149 47.8078 60.1283 47.7772C59.9737 47.7159 59.9799 47.7159 60.3696 47.428C60.5861 47.2748 61.0315 47.0053 61.3532 46.8337C62.0893 46.4478 62.1264 46.3559 61.5573 46.2518C61.0872 46.166 59.6582 45.8536 59.287 45.7556L59.052 45.6943L59.2252 45.5044C59.3242 45.4064 59.5283 45.2532 59.683 45.1613C60.2768 44.8183 60.6727 44.5303 60.6727 44.4262C60.6727 44.3404 60.4376 44.2424 59.584 43.9606C58.8726 43.7278 58.5138 43.5869 58.5571 43.5441C58.588 43.5134 59.0829 43.1887 59.6582 42.8334C60.2335 42.472 60.7098 42.1351 60.7222 42.0799C60.7346 42.0003 60.6603 41.9697 60.3201 41.9329C59.7015 41.8655 58.6375 41.6817 58.5818 41.6327C58.5571 41.6082 58.6128 41.5286 58.6994 41.4551C59.9737 40.3953 60.0603 40.3034 59.8562 40.1441C59.7943 40.0951 58.7983 39.6846 58.0931 39.409C58.0498 39.3906 58.0127 39.3538 58.0127 39.3293C58.0127 39.2681 58.7922 39.0108 59.4974 38.8392C59.7881 38.7719 60.2397 38.6371 60.5057 38.5513C60.9635 38.3982 60.982 38.3798 60.982 38.2021C60.982 38.0429 60.8707 37.902 60.3016 37.3384L59.6211 36.6645L60.4253 36.2357C61.1429 35.8559 61.2356 35.7946 61.2975 35.5986C61.3779 35.3535 61.3841 35.3658 60.8026 35.0105L60.4686 34.8083L61.081 34.6123C61.415 34.5081 61.6996 34.4101 61.7058 34.404C61.7367 34.3734 64.6318 26.0297 64.6318 25.9745C64.6318 25.9378 63.3389 25.9133 61.18 25.9133H57.7282L57.4931 26.967C57.3632 27.5489 57.1467 28.4678 57.0106 29.0069C56.6951 30.2689 56.6889 30.2995 56.3982 32.2537C56.2621 33.1604 56.126 33.9323 56.095 33.9629C56.0517 34.0058 56.0332 32.5723 56.0332 29.9687V25.9133H52.5381H49.043V39.36Z" fill="#7F7F7F"/>
</svg>
