<svg width="22" height="23" viewBox="0 0 22 23" fill="none" xmlns="http://www.w3.org/2000/svg">
<path d="M19.1099 13.6331L15.0614 11.819L15.0502 11.8138C14.8401 11.7239 14.6108 11.6878 14.3832 11.7088C14.1555 11.7299 13.9367 11.8073 13.7466 11.9341C13.7242 11.9489 13.7027 11.965 13.6821 11.9822L11.5904 13.7655C10.2652 13.1218 8.89712 11.764 8.25345 10.456L10.0392 8.33248C10.0564 8.311 10.0727 8.28951 10.0882 8.26631C10.2123 8.07665 10.2876 7.85924 10.3074 7.63344C10.3272 7.40764 10.2909 7.18045 10.2016 6.97209V6.96178L8.38235 2.90639C8.26439 2.63419 8.06157 2.40745 7.80415 2.26C7.54674 2.11255 7.24854 2.05231 6.95407 2.08826C5.78959 2.2415 4.72071 2.81338 3.94706 3.6971C3.17341 4.58081 2.7479 5.71594 2.75001 6.89045C2.75001 13.7139 8.30157 19.2655 15.125 19.2655C16.2995 19.2676 17.4346 18.842 18.3184 18.0684C19.2021 17.2947 19.774 16.2259 19.9272 15.0614C19.9632 14.767 19.9031 14.4689 19.7558 14.2115C19.6085 13.9541 19.382 13.7512 19.1099 13.6331ZM15.125 17.8905C12.2086 17.8873 9.41256 16.7273 7.35035 14.6651C5.28814 12.6029 4.12819 9.80685 4.12501 6.89045C4.12177 6.05126 4.42411 5.23959 4.97556 4.60701C5.52701 3.97443 6.28986 3.56421 7.12165 3.45295C7.12131 3.45638 7.12131 3.45983 7.12165 3.46326L8.92634 7.50233L7.15001 9.62842C7.13198 9.64917 7.1156 9.67129 7.10102 9.69459C6.9717 9.89304 6.89583 10.1215 6.88078 10.3579C6.86572 10.5943 6.91199 10.8306 7.01509 11.0438C7.79368 12.6362 9.39813 14.2287 11.0077 15.0064C11.2226 15.1085 11.4602 15.1532 11.6974 15.136C11.9347 15.1188 12.1634 15.0404 12.3613 14.9084C12.3833 14.8936 12.4046 14.8775 12.4249 14.8603L14.514 13.078L18.5531 14.8869C18.5531 14.8869 18.5599 14.8869 18.5625 14.8869C18.4526 15.7199 18.043 16.4843 17.4103 17.0371C16.7776 17.5899 15.9652 17.8933 15.125 17.8905Z" fill="#D486AD"/>
</svg>
