<svg width="166" height="51" viewBox="0 0 166 51" fill="none" xmlns="http://www.w3.org/2000/svg">
<rect y="-0.00976562" width="74" height="51.0097" rx="25.5049" fill="#FEE3F1"/>
<path d="M53.59 27.8977C53.1406 27.5515 52.6173 27.314 52.0609 27.2035C51.5045 27.0931 50.9301 27.1128 50.3826 27.2611L42.9604 28.9673C43.2037 28.3218 43.2868 27.6269 43.2026 26.9422C43.1184 26.2575 42.8694 25.6034 42.4769 25.0361C42.0844 24.4688 41.5602 24.0051 40.9492 23.6848C40.3382 23.3645 39.6586 23.1972 38.9688 23.1973H30.7558C30.1092 23.1954 29.4687 23.3219 28.8713 23.5695C28.274 23.817 27.7318 24.1807 27.276 24.6394L23.4681 28.4473H18.625C18.0158 28.4473 17.4316 28.6893 17.0009 29.12C16.5701 29.5508 16.3281 30.135 16.3281 30.7441V37.3066C16.3281 37.9158 16.5701 38.5 17.0009 38.9308C17.4316 39.3615 18.0158 39.6035 18.625 39.6035H35.6875C35.7683 39.6035 35.8487 39.5936 35.927 39.574L46.427 36.949C46.4767 36.9358 46.5255 36.9193 46.573 36.8998L52.942 34.1895L52.9961 34.1648C53.5592 33.8836 54.0415 33.4637 54.3974 32.9446C54.7534 32.4255 54.9714 31.8243 55.0308 31.1977C55.0902 30.571 54.9891 29.9396 54.737 29.3628C54.485 28.7861 54.0902 28.283 53.59 27.9009V27.8977ZM18.2969 37.3066V30.7441C18.2969 30.6571 18.3314 30.5737 18.393 30.5121C18.4545 30.4506 18.538 30.416 18.625 30.416H22.8906V37.6348H18.625C18.538 37.6348 18.4545 37.6002 18.393 37.5387C18.3314 37.4771 18.2969 37.3937 18.2969 37.3066ZM52.1397 32.3848L45.8725 35.0541L35.5661 37.6348H24.8594V29.8402L28.6673 26.0306C28.9409 25.7555 29.2664 25.5375 29.6249 25.3891C29.9834 25.2407 30.3678 25.1648 30.7558 25.166H38.9688C39.5779 25.166 40.1621 25.408 40.5929 25.8388C41.0236 26.2695 41.2656 26.8537 41.2656 27.4629C41.2656 28.0721 41.0236 28.6563 40.5929 29.087C40.1621 29.5178 39.5779 29.7598 38.9688 29.7598H34.375C34.1139 29.7598 33.8635 29.8635 33.6789 30.0481C33.4943 30.2327 33.3906 30.4831 33.3906 30.7441C33.3906 31.0052 33.4943 31.2556 33.6789 31.4402C33.8635 31.6248 34.1139 31.7285 34.375 31.7285H39.625C39.699 31.7286 39.7727 31.7203 39.8448 31.7039L50.837 29.1757L50.8764 29.1659C51.2901 29.0531 51.7309 29.0971 52.1142 29.2895C52.4974 29.4819 52.796 29.8092 52.9527 30.2084C53.1093 30.6075 53.113 31.0505 52.9629 31.4522C52.8129 31.8539 52.5197 32.1861 52.1397 32.3848ZM41.5544 17.0023C41.3805 16.8157 41.2858 16.5689 41.2903 16.3138C41.2948 16.0588 41.3981 15.8155 41.5785 15.6351C41.7589 15.4548 42.0022 15.3515 42.2572 15.347C42.5122 15.3425 42.759 15.4371 42.9456 15.611L46.5156 19.1794V8.43164C46.5156 8.17057 46.6193 7.92019 46.8039 7.73558C46.9885 7.55098 47.2389 7.44727 47.5 7.44727C47.7611 7.44727 48.0115 7.55098 48.1961 7.73558C48.3807 7.92019 48.4844 8.17057 48.4844 8.43164V19.1794L52.0544 15.611C52.241 15.4371 52.4878 15.3425 52.7428 15.347C52.9978 15.3515 53.2411 15.4548 53.4215 15.6351C53.6019 15.8155 53.7052 16.0588 53.7097 16.3138C53.7142 16.5689 53.6195 16.8157 53.4456 17.0023L48.1956 22.2523C48.0111 22.4366 47.7609 22.5401 47.5 22.5401C47.2391 22.5401 46.9889 22.4366 46.8044 22.2523L41.5544 17.0023Z" fill="#A2195E"/>
<circle cx="73.5" cy="24.5" r="7.5" fill="#FEE3F1"/>
<circle cx="95.5" cy="24.5" r="6.5" fill="#FEE3F1"/>
<circle cx="115.5" cy="24.5" r="5.5" fill="#FEE3F1"/>
<circle cx="133.5" cy="24.5" r="4.5" fill="#FEE3F1"/>
<circle cx="149.5" cy="24.5" r="3.5" fill="#FEE3F1"/>
<circle cx="163.5" cy="24.5" r="2.5" fill="#FEE3F1"/>
</svg>
