<svg width="166" height="51" viewBox="0 0 166 51" fill="none" xmlns="http://www.w3.org/2000/svg">
<rect width="74" height="51.0097" rx="25.5049" fill="#FEE3F1"/>
<path d="M31.75 27.2539C31.75 27.2539 33.5 27.2539 35.25 30.7539C35.25 30.7539 40.8089 22.0039 45.75 20.2539" stroke="#A2195E" stroke-width="2.625" stroke-linecap="round" stroke-linejoin="round"/>
<path d="M52.75 24.0747V18.9944C52.75 16.1244 52.75 14.6894 52.0428 13.7532C51.3356 12.8169 49.7367 12.3624 46.5387 11.4533C44.3539 10.8323 42.4278 10.084 40.889 9.40091C38.7909 8.46958 37.742 8.00391 37 8.00391C36.258 8.00391 35.209 8.46958 33.111 9.40091C31.5722 10.084 29.6462 10.8322 27.4613 11.4533C24.2634 12.3624 22.6644 12.8169 21.9572 13.7532C21.25 14.6894 21.25 16.1244 21.25 18.9944V24.0747C21.25 33.9188 30.1098 39.825 34.5395 42.1629C35.6019 42.7236 36.133 43.0039 37 43.0039C37.867 43.0039 38.3981 42.7236 39.4605 42.1629C43.8901 39.825 52.75 33.9188 52.75 24.0747Z" stroke="#A2195E" stroke-width="2.625" stroke-linecap="round"/>
<circle cx="73.5" cy="24.5098" r="7.5" fill="#FEE3F1"/>
<circle cx="95.5" cy="24.5098" r="6.5" fill="#FEE3F1"/>
<circle cx="115.5" cy="24.5098" r="5.5" fill="#FEE3F1"/>
<circle cx="133.5" cy="24.5098" r="4.5" fill="#FEE3F1"/>
<circle cx="149.5" cy="24.5098" r="3.5" fill="#FEE3F1"/>
<circle cx="163.5" cy="24.5098" r="2.5" fill="#FEE3F1"/>
</svg>
