<svg width="166" height="51" viewBox="0 0 166 51" fill="none" xmlns="http://www.w3.org/2000/svg">
<rect width="74" height="51.0097" rx="25.5049" fill="#FEE3F1"/>
<path d="M34.9934 30.059L50.744 14.3084C50.9306 14.1345 51.1774 14.0398 51.4324 14.0443C51.6875 14.0488 51.9308 14.1521 52.1112 14.3325C52.2915 14.5129 52.3948 14.7562 52.3993 15.0112C52.4038 15.2663 52.3092 15.5131 52.1353 15.6997L36.3847 31.4503C36.1981 31.6242 35.9513 31.7188 35.6962 31.7143C35.4412 31.7098 35.1979 31.6065 35.0175 31.4261C34.8372 31.2458 34.7338 31.0025 34.7293 30.7474C34.7248 30.4924 34.8195 30.2456 34.9934 30.059ZM37.0016 18.6135C38.1775 18.6124 39.3457 18.803 40.4602 19.1779C40.7078 19.2613 40.9783 19.2428 41.2123 19.1267C41.4463 19.0105 41.6246 18.8062 41.7079 18.5586C41.7912 18.311 41.7728 18.0404 41.6566 17.8064C41.5405 17.5724 41.3361 17.3942 41.0885 17.3108C39.0491 16.6234 36.8692 16.4614 34.7505 16.8398C32.6318 17.2182 30.6428 18.1249 28.9675 19.4759C27.2921 20.8269 25.9846 22.5786 25.1657 24.569C24.3469 26.5594 24.0433 28.7241 24.283 30.8629C24.3098 31.1048 24.4252 31.3282 24.607 31.49C24.7888 31.6518 25.0241 31.7405 25.2674 31.739C25.304 31.7414 25.3407 31.7414 25.3773 31.739C25.6366 31.7102 25.8738 31.5796 26.0369 31.3759C26.1999 31.1723 26.2755 30.9122 26.2469 30.6529C26.2007 30.2509 26.176 29.8467 26.1731 29.4421C26.1765 26.5712 27.3185 23.819 29.3485 21.789C31.3785 19.759 34.1308 18.617 37.0016 18.6135ZM53.0803 21.2222C53.0213 21.1072 52.9402 21.0049 52.8416 20.9212C52.743 20.8375 52.6289 20.774 52.5058 20.7344C52.3827 20.6948 52.253 20.6798 52.1241 20.6903C51.9953 20.7008 51.8697 20.7366 51.7546 20.7957C51.6396 20.8547 51.5373 20.9358 51.4536 21.0344C51.3699 21.133 51.3064 21.247 51.2668 21.3701C51.2272 21.4932 51.2122 21.6229 51.2227 21.7518C51.2332 21.8807 51.269 22.0063 51.3281 22.1213C52.3193 24.0668 52.9055 26.1931 53.051 28.3717C53.1965 30.5502 52.8984 32.7357 52.1747 34.7956C52.1528 34.8614 52.1108 34.9185 52.0545 34.9589C51.9982 34.9993 51.9306 35.0208 51.8613 35.0204H22.1468C22.0772 35.0186 22.0097 34.9955 21.9537 34.9541C21.8976 34.9127 21.8557 34.8551 21.8335 34.7891C20.9873 32.3639 20.733 29.7715 21.0919 27.2282C21.4507 24.6848 22.4123 22.264 23.8964 20.1676C25.3805 18.0712 27.3443 16.3599 29.6239 15.1763C31.9035 13.9927 34.433 13.3711 37.0016 13.3634H37.1493C39.6446 13.3793 42.1012 13.9818 44.3207 15.1222C44.4362 15.1813 44.5622 15.2171 44.6915 15.2276C44.8208 15.238 44.951 15.2229 45.0744 15.1831C45.1979 15.1432 45.3123 15.0794 45.4112 14.9954C45.51 14.9113 45.5913 14.8086 45.6505 14.6931C45.7096 14.5776 45.7454 14.4516 45.7559 14.3223C45.7663 14.193 45.7512 14.0629 45.7114 13.9394C45.6715 13.8159 45.6077 13.7015 45.5237 13.6026C45.4396 13.5038 45.3369 13.4225 45.2214 13.3634C42.7277 12.0845 39.9682 11.4101 37.1657 11.3945H37.0016C34.116 11.396 31.2727 12.0889 28.71 13.4154C26.1473 14.7418 23.9398 16.6631 22.2725 19.0183C20.6052 21.3735 19.5266 24.0939 19.127 26.9518C18.7275 29.8096 19.0187 32.7216 19.9762 35.4437C20.1341 35.8939 20.4276 36.2842 20.8162 36.561C21.2049 36.8377 21.6697 36.9873 22.1468 36.9892H51.8547C52.3307 36.988 52.7946 36.8397 53.183 36.5644C53.5713 36.2892 53.8649 35.9006 54.0237 35.4519C54.8381 33.1397 55.1744 30.6863 55.0122 28.2403C54.85 25.7942 54.1928 23.4067 53.0803 21.2222Z" fill="#A2195E"/>
<circle cx="73.5" cy="24.5098" r="7.5" fill="#FEE3F1"/>
<circle cx="95.5" cy="24.5098" r="6.5" fill="#FEE3F1"/>
<circle cx="115.5" cy="24.5098" r="5.5" fill="#FEE3F1"/>
<circle cx="133.5" cy="24.5098" r="4.5" fill="#FEE3F1"/>
<circle cx="149.5" cy="24.5098" r="3.5" fill="#FEE3F1"/>
<circle cx="163.5" cy="24.5098" r="2.5" fill="#FEE3F1"/>
</svg>
