<svg width="24" height="25" viewBox="0 0 24 25" fill="none" xmlns="http://www.w3.org/2000/svg">
<path d="M12 20.5156C13.8097 20.5156 15.5451 20.3368 17.1534 20.009C19.1623 19.5995 20.1668 19.3947 21.0834 18.2162C22 17.0377 22 15.6849 22 12.9791V11.0521C22 8.34635 22 6.99349 21.0834 5.81499C20.1668 4.6365 19.1623 4.43175 17.1534 4.02224C15.5451 3.69439 13.8097 3.51562 12 3.51562C10.1903 3.51562 8.45489 3.69439 6.84656 4.02224C4.83766 4.43175 3.83321 4.6365 2.9166 5.81499C2 6.99349 2 8.34635 2 11.0521V12.9791C2 15.6849 2 17.0377 2.9166 18.2162C3.83321 19.3947 4.83766 19.5995 6.84656 20.009C8.45489 20.3368 10.1903 20.5156 12 20.5156Z" stroke="white" stroke-width="1.5"/>
<path d="M15.9621 12.3285C15.8137 12.9343 15.0241 13.3694 13.4449 14.2397C11.7272 15.1861 10.8684 15.6594 10.1728 15.4771C9.9372 15.4153 9.7202 15.3067 9.53799 15.1594C9 14.7245 9 13.8215 9 12.0156C9 10.2097 9 9.30674 9.53799 8.8718C9.7202 8.72448 9.9372 8.61591 10.1728 8.55416C10.8684 8.37183 11.7272 8.84507 13.4449 9.79155C15.0241 10.6618 15.8137 11.0969 15.9621 11.7027C16.0126 11.9089 16.0126 12.1223 15.9621 12.3285Z" stroke="white" stroke-width="1.5" stroke-linejoin="round"/>
</svg>
